<?xml version="1.0" standalone="no"?>
<!DOCTYPE svg PUBLIC "-//W3C//DTD SVG 20010904//EN"
 "http://www.w3.org/TR/2001/REC-SVG-20010904/DTD/svg10.dtd">
<svg version="1.0" xmlns="http://www.w3.org/2000/svg"
 width="820.000000pt" height="512.000000pt" viewBox="0 0 820.000000 512.000000"
 preserveAspectRatio="xMidYMid meet">

<g transform="translate(0.000000,512.000000) scale(0.100000,-0.100000)"
fill="#000000" stroke="none">
<path d="M3320 5090 c0 -20 -5 -30 -15 -30 -9 0 -12 6 -9 15 8 19 -3 19 -23 0
-17 -17 -10 -47 9 -44 24 3 53 -3 41 -8 -7 -2 -13 -12 -13 -21 0 -14 -2 -14
-9 -3 -10 16 -104 33 -109 20 -2 -5 -10 -9 -18 -9 -17 0 -19 -20 -1 -21 6 0 2
-4 -10 -9 -27 -11 -30 -27 -5 -34 9 -2 0 -2 -20 1 -35 5 -38 3 -39 -18 -1 -13
-1 -28 0 -32 1 -5 -4 -7 -11 -5 -19 7 -23 68 -4 68 15 0 33 37 22 47 -3 3 -23
8 -46 10 -32 4 -40 2 -40 -11 0 -9 -6 -13 -14 -10 -14 5 -26 -23 -26 -63 0
-15 -6 -23 -17 -23 -16 0 -16 2 -3 10 13 9 12 12 -4 25 -11 8 -14 15 -8 15 7
0 12 7 12 15 0 22 -33 18 -48 -5 -7 -12 -8 -20 -2 -20 13 0 13 -37 1 -44 -5
-4 -12 7 -16 24 -4 16 -11 30 -17 30 -5 0 -7 -12 -3 -29 6 -27 4 -29 -15 -24
-13 4 -25 0 -31 -8 -6 -11 -11 -11 -21 -1 -18 18 -27 15 -38 -13 -6 -15 -17
-25 -30 -25 -16 0 -20 -7 -20 -30 0 -29 -13 -40 -25 -20 -11 18 -32 11 -38
-12 -4 -12 -1 -28 5 -35 8 -10 7 -13 -4 -13 -10 0 -18 14 -22 40 -6 42 -27 53
-44 25 -7 -13 -11 -11 -22 10 -26 48 -46 29 -41 -38 2 -26 0 -27 -26 -22 l-28
7 25 -21 c14 -11 19 -21 13 -21 -7 0 -13 -9 -13 -20 0 -27 -13 -25 -25 2 -6
13 -18 24 -28 26 -22 4 -35 -27 -16 -39 10 -6 4 -9 -18 -9 -17 0 -35 -5 -39
-11 -5 -8 -9 -8 -14 1 -10 17 -30 4 -30 -20 0 -24 -31 -36 -42 -15 -5 8 -20
15 -33 15 -18 0 -25 -7 -30 -31 -4 -17 -3 -34 1 -38 13 -9 10 -103 -4 -128 -9
-16 -10 -34 -3 -64 10 -44 6 -69 -11 -69 -6 0 -5 7 2 15 20 25 -4 45 -27 23
-13 -14 -14 -20 -3 -32 19 -23 6 -19 -22 7 -13 12 -23 28 -21 34 2 6 -1 14 -6
18 -6 3 -11 15 -11 26 0 33 -27 22 -28 -12 0 -19 -9 -37 -21 -46 -12 -8 -21
-24 -21 -37 0 -14 -10 -28 -25 -36 -13 -7 -22 -17 -19 -21 3 -5 -1 -6 -9 -3
-9 3 -17 -3 -21 -18 -9 -35 -7 -68 4 -68 5 0 8 -17 7 -37 -1 -27 -7 -39 -20
-43 -26 -7 -26 -24 1 -28 28 -4 30 -37 2 -54 -25 -16 -25 -27 -2 -45 13 -10
13 -13 2 -11 -8 2 -14 -3 -12 -9 1 -7 -2 -13 -8 -13 -21 0 -9 -20 13 -21 l22
0 -22 -9 c-30 -12 -52 -49 -51 -85 1 -48 -1 -55 -17 -55 -26 0 -16 -19 12 -26
42 -9 50 -12 31 -13 -19 -1 -25 -26 -8 -36 5 -3 20 -3 34 1 19 4 24 12 24 33
-1 30 8 51 21 51 5 0 6 -11 3 -25 -3 -18 0 -25 11 -25 9 0 18 4 22 10 3 5 12
7 20 4 10 -4 7 -13 -16 -35 -31 -31 -37 -44 -15 -36 8 3 22 -1 33 -9 16 -12
16 -13 1 -8 -10 3 -18 1 -18 -5 0 -6 8 -11 17 -11 13 0 14 -3 5 -12 -7 -7 -12
-21 -12 -32 0 -17 -2 -18 -9 -6 -6 8 -7 18 -4 23 5 9 -14 27 -30 27 -4 0 -12
-11 -18 -24 -7 -14 -17 -22 -24 -20 -18 7 -29 -14 -15 -31 9 -11 6 -14 -17
-17 -38 -4 -37 -32 1 -36 23 -3 28 0 23 12 -4 10 -1 16 8 16 9 0 12 -6 9 -15
-4 -8 -1 -15 5 -15 15 0 14 -37 -1 -43 -7 -2 -9 -8 -5 -13 4 -5 11 -3 15 3 8
13 72 32 90 26 6 -3 10 -9 6 -14 -8 -14 23 -40 40 -33 22 8 20 28 -1 20 -17
-6 -17 -5 0 8 9 7 17 23 17 35 0 11 3 22 8 22 29 5 62 4 62 -3 0 -5 14 -1 31
7 17 9 33 14 37 11 3 -3 0 -6 -6 -6 -7 0 -12 -5 -12 -11 0 -7 15 -10 39 -7 36
3 38 2 29 -15 -5 -10 -8 -20 -6 -22 8 -8 58 8 58 19 0 6 5 4 11 -4 7 -11 12
-12 15 -3 3 7 12 9 20 6 9 -3 29 8 49 27 l34 33 7 -27 c4 -18 13 -26 28 -26
11 0 32 -3 45 -7 20 -5 23 -3 18 10 -5 13 -1 17 19 17 24 0 24 -1 9 -17 -19
-19 -38 -63 -30 -71 7 -7 64 -7 71 1 3 3 -5 16 -17 28 -15 15 -18 24 -11 27 7
2 12 10 12 18 0 21 21 17 27 -6 3 -12 17 -27 31 -34 25 -13 25 -14 4 -20 -31
-10 -29 -46 2 -46 17 0 26 7 30 25 4 14 14 25 23 25 14 0 12 4 -7 24 -20 23
-21 26 -7 41 10 9 18 11 22 5 11 -18 41 -11 65 15 l24 26 11 -42 c9 -37 14
-43 38 -44 16 0 31 -5 35 -10 13 -19 68 -33 87 -22 16 9 17 6 13 -24 -6 -41
-1 -59 18 -59 8 0 22 -9 31 -20 10 -11 22 -20 28 -20 5 0 21 -9 35 -20 14 -11
31 -20 38 -20 14 0 16 36 2 45 -6 4 -5 11 3 19 15 17 27 11 27 -13 0 -10 9
-29 19 -43 11 -13 19 -31 19 -39 -2 -37 3 -49 22 -49 11 0 23 7 26 15 4 8 13
15 22 15 10 0 6 -8 -14 -26 l-29 -26 34 6 c27 5 37 2 51 -17 10 -12 34 -29 54
-37 34 -13 48 -30 26 -30 -5 0 -12 -11 -16 -25 -3 -14 -11 -25 -16 -25 -5 0
-8 -6 -6 -12 3 -7 -1 -19 -9 -26 -17 -18 -17 -32 2 -32 12 0 11 -4 -5 -20 -11
-11 -29 -20 -40 -20 -12 0 -20 -7 -20 -16 0 -11 6 -15 20 -11 17 4 18 3 8 -16
-7 -12 -12 -25 -13 -29 0 -4 -17 -25 -37 -47 -21 -21 -38 -44 -38 -49 0 -5
-19 -7 -45 -4 -30 3 -45 1 -45 -7 0 -6 -6 -11 -13 -11 -8 0 -20 -11 -27 -25
-7 -14 -19 -25 -27 -25 -7 0 -13 -5 -13 -11 0 -6 9 -9 19 -6 17 4 18 2 8 -14
-7 -11 -17 -17 -24 -15 -7 3 -32 -6 -55 -19 -31 -18 -58 -25 -98 -25 -30 0
-68 -7 -84 -15 -38 -20 -53 -19 -79 8 -40 39 -71 48 -106 31 -17 -9 -31 -20
-31 -26 0 -14 -48 -1 -67 17 -20 20 -53 19 -53 -2 0 -15 -2 -14 -19 3 -10 10
-16 25 -13 32 2 6 -1 12 -7 12 -6 0 -11 -4 -11 -10 0 -5 -6 -10 -13 -10 -8 0
-14 7 -14 15 0 8 4 15 9 15 17 0 7 18 -14 25 -20 6 -20 8 -5 12 9 2 17 9 17
14 0 6 -8 9 -17 8 -41 -4 -63 2 -63 16 0 8 -4 15 -10 15 -5 0 -10 -7 -10 -15
0 -8 -8 -15 -18 -15 -10 0 -24 -6 -31 -12 -7 -7 -12 -8 -11 -3 7 36 0 44 -38
40 -44 -4 -51 0 -75 37 -21 33 -21 39 -2 32 8 -4 15 -2 15 4 0 15 -23 21 -43
10 -12 -6 -22 -4 -34 7 -9 9 -24 14 -34 12 -10 -3 -26 1 -36 9 -11 8 -13 13
-5 14 16 0 16 27 0 33 -8 3 -6 6 4 6 11 1 15 6 12 16 -8 20 -21 19 -47 -5 -12
-11 -27 -18 -34 -16 -17 7 -43 -3 -43 -16 0 -22 -49 -56 -71 -51 -17 5 -21 3
-16 -9 4 -11 -3 -20 -24 -28 -40 -17 -55 -46 -32 -59 17 -9 17 -10 1 -16 -23
-9 -23 -24 0 -42 16 -13 16 -14 -5 -29 -26 -19 -30 -34 -8 -34 17 0 20 -31 5
-46 -5 -5 -10 -24 -12 -42 -1 -20 -8 -32 -16 -32 -9 0 -12 -7 -9 -20 3 -13 0
-20 -9 -20 -8 0 -14 5 -14 10 0 6 -4 10 -8 10 -5 0 -9 -19 -10 -42 -1 -23 -9
-51 -17 -62 -87 -120 -85 -117 -70 -153 11 -27 12 -33 1 -33 -14 0 -15 -56 -2
-97 4 -13 3 -23 -2 -23 -11 0 -22 -46 -14 -55 3 -3 11 0 19 6 10 9 13 8 13 -5
0 -9 11 -21 25 -26 14 -5 25 -16 25 -24 0 -7 9 -16 20 -19 11 -3 18 0 17 7 -4
22 56 5 80 -22 26 -31 28 -39 11 -45 -7 -2 -10 -8 -6 -12 11 -12 40 23 32 37
-5 8 -1 7 10 -2 11 -8 14 -16 7 -18 -16 -5 -13 -22 4 -22 8 0 15 -4 15 -10 0
-17 25 -11 40 9 13 19 14 19 26 3 22 -28 16 -37 -31 -51 -25 -7 -45 -17 -45
-22 0 -12 18 -20 24 -11 9 15 58 1 52 -14 -3 -7 3 -18 12 -23 9 -6 15 -11 12
-11 -3 -1 -18 -3 -33 -5 -23 -3 -26 -1 -17 10 7 8 7 15 1 19 -5 4 -13 1 -16
-4 -5 -8 -13 -6 -25 5 -10 9 -27 15 -37 13 -17 -3 -16 -5 3 -24 11 -11 24 -29
27 -38 4 -11 13 -16 22 -12 17 6 30 -10 15 -19 -16 -10 -12 -28 5 -22 8 4 17
1 21 -5 5 -7 2 -8 -6 -3 -10 6 -12 4 -7 -8 4 -11 2 -14 -7 -11 -18 7 -29 -11
-21 -36 4 -13 15 -20 30 -20 13 0 27 -5 30 -10 3 -6 17 -10 31 -10 14 0 34 -5
45 -10 14 -8 25 -6 44 6 15 10 25 12 25 5 0 -6 4 -11 10 -11 5 0 7 15 5 33 -4
26 -3 27 3 7 13 -41 59 -39 53 2 0 4 10 2 24 -4 13 -6 22 -14 20 -18 -3 -4 11
-15 29 -24 38 -18 54 -49 36 -71 -8 -10 -8 -15 2 -22 9 -5 2 -10 -22 -13 -19
-4 -41 -2 -47 3 -7 5 -20 7 -28 3 -8 -3 -15 -1 -15 4 0 6 4 10 10 10 5 0 12
11 16 25 3 13 12 29 20 36 15 12 9 33 -7 23 -5 -3 -16 -20 -23 -39 -14 -32
-52 -63 -64 -51 -3 3 0 6 6 6 7 0 12 7 12 15 0 8 -5 15 -11 15 -8 0 -8 5 1 15
10 12 9 16 -3 21 -15 5 -77 -46 -77 -65 0 -5 9 -12 19 -16 11 -3 24 -12 31
-20 9 -11 7 -12 -9 -8 -14 3 -21 1 -21 -8 0 -10 -16 -14 -58 -16 -31 -1 -49 1
-39 4 18 5 24 23 6 23 -5 0 -7 5 -4 10 10 17 25 11 25 -10 0 -11 5 -20 11 -20
7 0 9 10 4 28 -4 15 -8 39 -10 55 -1 15 -3 30 -4 33 -2 8 -61 -29 -61 -38 0
-4 7 -8 15 -8 8 0 15 -4 15 -10 0 -17 -42 -11 -56 8 -10 14 -15 15 -26 4 -11
-11 -10 -16 5 -26 22 -17 22 -26 -3 -26 -22 0 -27 -15 -9 -26 6 -3 16 -1 22 5
14 14 27 14 27 1 0 -15 33 -50 46 -50 7 0 14 -7 18 -15 7 -19 65 -9 87 16 9
10 19 16 23 12 4 -4 9 3 13 15 3 12 9 19 14 16 15 -9 10 -34 -6 -34 -20 0 -19
-6 5 -30 25 -25 36 -25 43 -1 3 15 1 18 -12 14 -15 -5 -15 -5 0 8 9 8 19 26
23 42 7 30 27 35 47 11 7 -8 21 -13 31 -11 10 3 16 1 12 -4 -3 -5 -11 -9 -19
-9 -8 0 -18 -8 -24 -17 -9 -17 -10 -17 -17 1 -5 12 -3 21 4 24 14 4 6 22 -9
22 -6 0 -7 -5 -4 -10 3 -5 2 -10 -2 -10 -5 0 -10 -11 -11 -25 -1 -16 3 -25 12
-25 8 0 16 -7 19 -14 4 -10 1 -13 -8 -10 -18 7 -30 -33 -15 -51 12 -14 39 -10
53 9 5 7 7 4 3 -7 -5 -17 -2 -19 64 -43 12 -4 12 -7 1 -13 -9 -6 -10 -11 -2
-15 6 -4 11 -2 11 3 0 6 11 11 25 11 18 0 25 5 25 19 0 31 18 34 22 4 5 -45
25 -38 33 13 5 34 3 49 -7 55 -9 6 -7 9 10 9 12 0 22 -5 22 -11 0 -5 5 -7 10
-4 6 3 15 -6 21 -22 7 -19 7 -29 0 -31 -16 -5 -14 -16 8 -41 14 -16 21 -18 25
-9 5 10 7 10 12 1 9 -21 27 -15 21 7 -5 21 1 24 26 14 24 -9 -10 -43 -50 -50
-35 -7 -43 -21 -17 -31 9 -3 20 0 25 8 6 10 9 8 9 -9 0 -20 -4 -22 -22 -16
-13 4 -26 12 -30 18 -11 16 -18 3 -11 -23 3 -13 11 -20 19 -17 8 3 14 -1 14
-9 0 -8 -6 -15 -13 -15 -21 0 -71 -46 -59 -54 6 -3 13 -2 17 4 3 5 13 10 21
10 9 0 12 -5 8 -12 -5 -8 0 -9 14 -6 18 5 22 2 22 -18 0 -13 6 -24 13 -24 8 0
8 -3 -2 -9 -18 -12 -7 -41 16 -42 10 -1 28 -3 41 -4 16 -2 21 2 18 11 -4 9 3
13 23 11 18 -1 27 -7 24 -14 -3 -8 3 -13 14 -13 10 0 23 -10 28 -22 6 -13 18
-24 28 -26 16 -3 18 0 12 20 l-6 23 21 -25 c15 -17 23 -21 27 -12 7 18 23 15
23 -5 0 -11 3 -14 8 -8 4 7 19 -1 37 -19 17 -17 23 -27 13 -23 -10 3 -20 2
-23 -3 -3 -5 4 -11 15 -15 11 -3 20 -12 20 -20 0 -7 14 -18 32 -24 17 -6 28
-14 25 -18 -4 -3 -2 -12 4 -19 11 -14 4 -34 -12 -34 -5 0 -8 5 -6 11 1 6 -4
14 -12 17 -10 3 -13 -1 -8 -17 3 -14 0 -21 -9 -21 -8 0 -14 -7 -14 -15 0 -8 9
-15 20 -15 11 0 20 5 20 10 0 21 19 9 32 -20 14 -34 33 -41 25 -10 -3 13 0 20
9 20 8 0 14 5 14 10 0 6 -4 10 -10 10 -5 0 -10 7 -10 15 0 24 17 17 24 -10 7
-27 24 -32 46 -12 12 10 12 9 1 -5 -7 -10 -22 -18 -33 -18 -15 0 -19 -5 -15
-20 3 -11 1 -20 -4 -20 -5 0 -9 -4 -9 -10 0 -16 27 -12 34 5 3 8 14 15 25 15
12 0 18 -5 16 -12 -3 -7 4 -26 14 -42 17 -25 18 -32 6 -50 -9 -14 -11 -26 -5
-36 7 -12 12 -11 29 4 12 11 21 25 21 32 0 9 7 9 31 -3 16 -8 33 -12 37 -9 12
13 -15 41 -42 44 -33 4 -34 28 -1 36 14 4 25 11 25 16 0 5 7 7 15 4 8 -4 15
-1 15 5 0 6 -5 11 -12 11 -6 0 -9 2 -6 5 3 3 17 1 31 -4 25 -10 29 -24 14 -48
-5 -7 -6 -17 -3 -22 3 -5 0 -11 -8 -14 -18 -7 -16 -25 7 -57 19 -28 22 -40 7
-40 -5 0 -10 6 -10 14 0 20 -18 30 -33 18 -7 -5 -22 -8 -34 -6 -13 2 -23 0
-23 -4 0 -11 40 -33 49 -27 5 3 20 -4 32 -14 25 -21 23 -23 -28 -34 -15 -3
-23 0 -23 8 0 9 -9 10 -32 5 -18 -4 -32 -12 -31 -18 2 -7 -2 -12 -7 -12 -6 0
-10 -9 -10 -19 0 -18 19 -32 50 -37 8 -1 30 -5 48 -9 21 -5 32 -4 32 4 0 6 12
11 26 11 25 0 84 28 84 41 0 6 71 -11 102 -25 25 -11 39 2 32 30 -4 14 -2 24
5 24 6 0 11 -7 11 -16 0 -23 64 -14 69 11 2 13 -1 16 -13 12 -13 -5 -14 -3 -3
13 6 11 18 20 25 20 20 0 9 24 -14 30 -13 3 -19 14 -19 35 0 20 -5 30 -15 30
-8 0 -29 6 -47 13 -29 13 -31 16 -21 42 10 29 40 49 46 31 4 -13 62 -15 62 -2
0 5 -13 14 -29 21 -19 7 -28 17 -24 26 3 8 0 14 -6 14 -6 0 -11 -3 -11 -7 0
-13 -49 -9 -54 4 -3 7 2 20 11 29 12 12 13 18 4 23 -10 6 -8 12 4 25 17 16 49
14 69 -4 11 -11 36 -1 36 14 0 7 12 12 28 12 24 -1 27 2 24 29 -2 16 -9 33
-15 37 -9 6 -9 8 1 8 6 0 12 5 12 10 0 17 -29 11 -50 -10 -13 -13 -21 -16 -26
-8 -4 7 -2 14 4 16 17 5 15 22 -3 22 -8 0 -15 7 -15 15 0 20 -17 19 -29 -3 -9
-15 -12 -15 -20 -2 -7 9 -6 17 1 21 6 4 8 11 4 17 -3 6 -1 12 5 14 14 5 2 88
-12 88 -5 0 -9 5 -9 10 0 6 7 10 16 10 11 0 15 6 11 19 -3 14 -1 18 9 14 8 -3
14 1 14 11 0 9 -5 16 -11 16 -14 0 16 49 45 72 21 18 21 18 -9 19 -16 1 -37 2
-45 3 -8 1 -20 5 -27 9 -7 4 -25 1 -40 -7 -56 -29 -104 -22 -156 21 -18 14
-42 23 -64 23 -27 0 -34 3 -30 15 4 8 2 17 -4 20 -5 4 -12 -1 -15 -10 -5 -12
-14 -14 -38 -9 -47 10 -51 15 -25 35 26 20 59 25 59 9 0 -5 9 -10 19 -10 11 0
21 -5 23 -11 2 -6 49 -12 118 -15 158 -5 194 -8 200 -15 3 -4 16 -9 30 -13 18
-5 21 -4 11 3 -10 7 -1 9 32 9 41 0 51 5 81 36 18 20 38 36 44 36 6 0 19 12
30 27 12 16 24 24 29 19 4 -5 2 -11 -4 -13 -7 -3 -13 -9 -13 -15 0 -6 8 -7 18
-4 16 6 16 5 0 -8 -10 -7 -18 -21 -18 -30 0 -10 -5 -14 -10 -11 -6 4 -17 1
-25 -5 -10 -8 -15 -9 -15 -2 0 6 -7 9 -15 6 -23 -9 -18 -34 6 -31 12 1 24 -4
27 -12 4 -11 -2 -13 -27 -8 -32 7 -37 2 -22 -22 11 -17 -15 -42 -34 -34 -7 2
-18 -3 -25 -12 -20 -24 -43 -19 -34 7 6 20 5 21 -9 6 -9 -8 -14 -26 -13 -40 2
-20 -1 -24 -16 -20 -10 2 -18 -1 -18 -7 0 -6 7 -11 15 -11 8 0 19 -9 25 -20 8
-15 17 -19 34 -14 21 5 23 2 22 -24 -1 -19 -5 -27 -11 -22 -5 4 -19 4 -30 -1
-11 -4 -14 -8 -6 -8 10 -1 11 -4 2 -15 -8 -10 -9 -16 -1 -21 5 -3 10 -14 10
-25 0 -10 7 -21 16 -24 22 -9 24 -8 24 9 0 13 4 14 21 5 11 -7 18 -14 15 -17
-3 -4 -1 -12 5 -19 6 -8 9 -21 5 -29 -3 -8 -1 -15 4 -15 11 0 7 -52 -6 -92 -6
-20 -5 -21 10 -9 14 12 16 9 16 -33 0 -42 2 -46 25 -46 18 0 25 5 25 20 0 17
5 19 25 14 14 -3 25 -2 25 4 0 5 -11 13 -25 16 -25 6 -28 14 -27 71 2 139 1
138 38 110 10 -9 13 -14 5 -13 -7 2 -16 -3 -18 -10 -4 -10 3 -12 30 -7 33 6
35 5 30 -14 -4 -15 -1 -21 11 -21 11 0 16 9 16 27 0 91 7 195 18 242 9 43 9
62 0 88 -9 26 -9 49 0 105 7 39 9 75 4 80 -4 4 -22 4 -40 -1 -20 -6 -32 -6
-32 0 0 5 -12 7 -27 4 -26 -6 -27 -5 -10 8 10 9 18 18 17 22 -4 18 9 14 15 -4
3 -12 11 -21 16 -21 6 0 8 9 4 19 -5 15 1 24 24 36 22 11 32 25 37 50 3 19 10
38 15 41 5 3 9 13 9 24 0 10 7 21 16 24 16 6 44 -15 44 -33 0 -6 5 -11 11 -11
7 0 17 -7 24 -17 15 -20 35 -9 28 16 -3 10 0 22 6 25 6 4 11 1 11 -7 0 -7 11
-19 24 -25 20 -9 27 -7 42 9 18 19 50 27 39 9 -4 -6 -10 -8 -15 -5 -5 3 -11 1
-15 -5 -3 -5 1 -10 9 -10 9 0 16 -3 16 -7 -1 -15 -70 -52 -85 -47 -8 4 -15 1
-15 -5 0 -6 5 -11 10 -11 6 0 10 -7 10 -15 0 -8 4 -15 9 -15 19 0 28 -57 20
-125 -4 -38 -4 -74 1 -78 4 -5 3 -27 -2 -49 -5 -26 -5 -45 1 -51 12 -12 3 -37
-15 -37 -8 0 -14 -4 -14 -10 0 -5 7 -10 15 -10 17 0 19 -9 5 -44 -6 -16 -6
-27 0 -31 15 -9 12 -49 -5 -71 -8 -10 -15 -22 -15 -25 0 -15 60 -30 91 -24 30
7 31 6 17 -8 -8 -8 -28 -17 -44 -19 -35 -4 -48 -38 -15 -38 26 0 27 -8 4 -26
-15 -12 -16 -15 -3 -23 18 -12 33 -3 26 15 -3 8 -1 14 4 14 5 0 7 7 3 16 -6
17 12 34 38 34 12 0 16 -13 17 -62 1 -40 -3 -65 -11 -70 -9 -5 -8 -11 5 -25
11 -11 21 -14 27 -8 16 19 31 77 25 101 -4 16 -2 24 6 24 7 0 10 8 7 20 -3 13
0 20 10 20 8 0 13 7 11 17 -1 10 2 24 7 32 5 10 4 16 -3 19 -8 2 -8 7 -1 15 5
7 16 21 24 32 13 18 14 18 15 3 0 -10 -4 -18 -10 -18 -5 0 -10 -9 -10 -20 0
-11 7 -20 15 -20 15 0 35 57 35 99 0 24 0 24 -22 5 -21 -19 -21 -19 -15 6 4
14 7 28 7 31 0 4 13 9 28 12 19 4 28 12 29 28 1 12 7 25 14 29 7 5 8 17 4 31
-6 21 -6 22 6 8 8 -9 21 -19 29 -22 11 -3 7 -8 -12 -17 -34 -16 -37 -32 -5
-27 12 2 17 2 10 0 -14 -5 -12 -55 2 -51 6 2 9 6 8 11 -2 4 2 7 7 7 6 0 10
-13 10 -30 0 -20 -5 -30 -15 -30 -8 0 -15 -5 -15 -11 0 -6 8 -9 19 -6 14 3 17
0 14 -13 -3 -10 -14 -21 -25 -23 -11 -3 -17 -10 -14 -16 4 -6 13 -8 21 -4 8 3
15 0 15 -6 0 -6 8 -11 18 -11 16 -1 16 -1 0 -11 -10 -5 -18 -21 -18 -35 0 -21
3 -24 23 -19 19 5 20 4 5 -5 -23 -14 -23 -37 2 -77 11 -18 17 -39 14 -47 -3
-8 -1 -17 5 -21 16 -10 13 -25 -5 -25 -11 0 -15 -6 -11 -19 2 -11 -3 -24 -14
-32 -23 -16 -25 -34 -4 -25 9 3 15 0 15 -9 0 -8 7 -15 15 -15 9 0 15 9 15 23
0 18 2 19 10 7 15 -22 12 -57 -5 -63 -8 -4 -17 -2 -20 4 -4 5 -11 7 -16 4 -5
-4 -9 1 -9 9 0 9 -6 16 -14 16 -19 0 -39 -27 -33 -44 4 -10 0 -12 -14 -9 -13
4 -19 0 -19 -11 0 -9 8 -16 19 -16 11 0 23 -5 26 -11 4 -6 13 -8 20 -5 8 3 15
0 17 -6 5 -13 28 -2 28 13 0 5 -6 9 -14 9 -7 0 -16 9 -19 21 -4 16 -3 18 9 8
8 -6 14 -8 15 -3 1 21 18 -34 18 -63 1 -22 6 -33 16 -33 8 0 15 7 15 15 0 8 5
15 10 15 14 0 12 -74 -2 -88 -9 -9 -10 -15 -2 -20 6 -4 10 -17 9 -29 -1 -24
-15 -45 -15 -24 0 7 -5 9 -11 5 -8 -5 -7 -10 4 -16 9 -5 14 -15 10 -23 -3 -9
0 -22 6 -29 7 -8 8 -16 3 -18 -14 -5 -24 -58 -12 -58 6 0 9 -4 5 -10 -3 -5 -1
-17 4 -27 6 -10 13 -35 16 -55 6 -37 27 -58 59 -58 22 0 20 27 -1 33 -17 4
-17 5 0 6 15 1 17 13 16 117 0 92 3 119 15 133 14 15 14 19 1 32 -14 13 -13
18 7 39 14 15 18 25 11 27 -7 3 -10 10 -7 18 3 8 1 22 -4 31 -7 13 -6 24 5 40
8 13 14 31 13 41 -5 41 0 52 18 47 12 -4 14 -3 4 4 -18 12 -11 71 15 140 3 9
7 19 7 22 4 16 25 43 26 31 0 -9 8 -11 25 -7 14 4 25 2 25 -4 0 -5 -7 -10 -15
-10 -26 0 -16 -19 19 -35 43 -21 80 -16 85 10 2 11 7 30 12 42 8 21 9 21 39 6
34 -17 42 -13 47 19 4 27 -16 41 -36 25 -12 -10 -14 -9 -8 6 4 10 7 21 7 24 0
3 7 0 15 -7 17 -14 35 -5 35 17 0 9 -6 13 -14 10 -8 -3 -17 1 -20 9 -3 8 -11
14 -18 14 -7 0 -13 11 -13 24 0 13 5 22 11 19 6 -2 14 3 17 11 8 20 37 21 37
1 0 -8 9 -15 20 -15 11 0 20 6 20 14 0 20 21 31 30 16 9 -15 42 -10 48 9 3 9
-2 11 -19 7 -22 -7 -23 -6 -4 5 11 6 28 21 37 33 11 12 18 16 18 8 0 -7 5 -10
10 -7 6 3 7 17 4 30 -5 20 -3 23 15 18 11 -3 19 -9 16 -13 -3 -5 -1 -11 5 -15
19 -12 10 -35 -13 -35 -20 0 -23 -5 -23 -35 0 -41 19 -52 35 -22 7 12 25 30
41 39 30 17 40 38 19 38 -8 0 -8 4 0 13 8 10 7 17 -1 25 -9 9 -9 12 0 12 7 0
12 10 12 23 1 22 1 22 16 2 8 -11 21 -19 28 -17 8 1 16 -4 20 -13 3 -9 0 -15
-9 -15 -19 0 -28 -35 -16 -58 6 -11 8 -22 5 -25 -3 -3 5 -3 18 -1 20 5 21 4 5
-6 -9 -6 -26 -8 -37 -5 -11 4 -20 2 -20 -3 0 -12 24 -22 51 -22 10 0 19 -5 19
-11 0 -7 10 -9 24 -7 19 4 22 1 18 -15 -4 -16 -2 -19 13 -13 16 6 16 4 4 -10
-8 -10 -15 -12 -17 -5 -7 21 -22 11 -22 -14 0 -14 5 -25 12 -25 9 0 9 -3 0
-12 -21 -21 -13 -30 18 -23 26 6 30 4 30 -15 0 -15 5 -20 17 -18 9 2 16 6 15
11 -1 4 -2 16 -2 27 0 11 -6 20 -12 20 -7 0 -19 4 -27 9 -12 8 -12 12 0 29 13
18 17 18 34 6 10 -8 29 -14 42 -14 13 0 23 -4 23 -10 0 -17 48 -11 58 7 6 10
22 16 41 16 25 0 33 5 37 24 4 14 14 23 25 23 10 0 19 5 19 10 0 6 7 10 15 10
8 0 15 5 15 10 0 6 -4 10 -10 10 -5 0 -7 7 -4 15 5 12 9 13 20 4 8 -7 17 -9
20 -6 10 10 14 126 5 132 -6 3 -8 12 -5 19 3 8 -2 16 -13 19 -14 4 -14 5 5 6
27 1 30 21 2 21 -11 0 -35 -14 -53 -32 -27 -27 -29 -30 -10 -26 14 4 24 0 27
-9 8 -20 8 -23 -5 -23 -5 0 -7 4 -4 10 3 5 -4 10 -15 10 -13 0 -24 8 -27 20
-3 11 -9 20 -14 20 -5 0 -9 9 -9 19 0 23 -23 34 -39 18 -22 -22 -11 -43 21
-39 3 1 9 -6 13 -16 3 -9 3 -13 -1 -9 -4 4 -13 2 -21 -5 -11 -9 -12 -7 -7 7 6
15 3 17 -14 13 -12 -4 -20 -2 -16 3 3 5 -2 9 -10 9 -9 0 -16 4 -16 9 0 15 -61
25 -70 11 -5 -8 -9 -7 -13 4 -4 10 -1 16 7 16 17 0 29 59 16 76 -16 18 -8 88
10 95 8 4 18 2 21 -4 5 -6 18 -6 38 1 37 13 62 6 54 -14 -3 -8 1 -14 8 -14 8
0 6 -5 -6 -13 -20 -16 -4 -34 17 -20 7 4 25 6 40 4 14 -1 29 3 33 9 9 14 3 21
-23 23 -16 1 -18 4 -10 14 6 7 17 13 24 13 8 0 14 6 14 14 0 8 6 17 13 19 9 4
9 7 0 14 -18 13 -11 172 8 183 11 8 11 12 1 22 -10 10 -15 10 -22 -2 -5 -8
-10 -10 -10 -5 0 13 21 35 33 35 4 0 6 -4 3 -9 -5 -7 15 -21 30 -21 10 0 3 39
-8 44 -7 3 -3 3 10 0 14 -3 34 1 49 12 25 16 26 17 8 30 -27 20 -52 19 -35 -1
10 -12 10 -15 -3 -15 -9 0 -16 12 -19 33 -3 31 -2 32 37 34 22 0 32 -1 23 -4
-34 -9 -20 -26 15 -18 17 4 43 7 57 7 17 -1 29 7 37 24 9 19 8 24 -3 24 -8 0
-14 6 -14 14 0 8 -6 17 -12 19 -8 3 -6 6 5 6 9 1 17 -6 17 -15 0 -10 6 -14 15
-10 18 7 45 -19 45 -44 0 -20 26 -35 35 -20 3 5 1 18 -5 29 -5 11 -10 28 -9
38 0 15 2 14 9 -4 11 -27 30 -30 31 -5 0 9 2 33 3 52 3 44 -2 60 -20 60 -17 0
-18 -17 -1 -23 10 -4 10 -7 0 -18 -11 -11 -13 -10 -13 4 0 9 -4 17 -9 17 -12
0 -9 33 4 42 15 11 27 10 20 -2 -3 -5 1 -10 10 -10 8 0 20 11 26 24 9 20 8 27
-9 44 -11 11 -24 17 -28 14 -4 -4 -4 -1 0 6 5 8 1 12 -11 12 -15 0 -16 2 -3
10 9 6 17 5 22 -3 12 -20 20 0 8 23 -10 19 -9 20 7 11 76 -41 191 -24 209 31
7 23 24 23 24 1 0 -13 3 -14 11 -6 8 8 2 20 -22 46 -19 18 -35 44 -37 57 -1
13 -8 28 -15 32 -9 6 -9 8 1 8 8 0 12 16 12 45 0 25 -4 45 -9 45 -14 0 -8 49
7 55 16 6 16 35 -1 35 -7 0 -18 -5 -23 -10 -15 -15 -57 25 -59 55 0 13 5 27
11 29 17 7 24 56 8 56 -8 0 -14 -5 -14 -11 0 -5 -4 -7 -10 -4 -16 10 -12 35 6
35 9 0 14 6 11 13 -2 6 -12 11 -22 9 -13 -3 -16 1 -11 13 3 9 6 18 6 21 0 2 7
1 15 -2 8 -4 15 -11 15 -16 0 -9 39 -47 50 -48 3 0 11 9 18 20 10 17 10 20 -4
20 -8 0 -12 -5 -8 -11 4 -7 -1 -9 -12 -7 -11 2 -18 11 -18 21 1 9 -2 17 -8 17
-5 0 -6 5 -3 10 8 13 45 13 45 0 0 -5 5 -10 10 -10 6 0 10 7 10 15 0 8 7 15
16 15 14 0 14 3 3 16 -7 8 -21 13 -30 11 -10 -3 -23 1 -30 9 -17 20 -39 17
-39 -6 0 -13 -5 -18 -15 -14 -8 4 -15 1 -15 -5 0 -8 -4 -8 -13 1 -11 10 -10
16 10 34 28 26 30 38 3 31 -12 -3 -20 0 -20 8 0 22 -52 24 -108 3 -45 -17 -56
-18 -64 -7 -7 11 -11 11 -15 2 -7 -18 -42 -16 -50 2 -8 22 -1 26 59 34 49 6
53 8 50 31 -1 15 1 20 6 13 11 -17 84 -26 102 -13 13 9 13 12 -2 21 -10 5 -18
18 -18 27 0 9 -16 28 -35 42 -41 30 -44 40 -9 40 21 0 25 4 22 22 -3 23 -38
39 -38 18 0 -6 -7 -19 -16 -28 -15 -15 -16 -14 -10 6 5 13 3 22 -3 22 -6 0
-11 -3 -11 -8 0 -4 -18 -13 -40 -20 -30 -9 -46 -9 -61 -1 -11 6 -23 8 -26 5
-3 -3 -13 2 -22 12 -22 23 -62 45 -69 37 -3 -3 6 -16 20 -28 15 -13 30 -36 34
-51 3 -15 13 -30 20 -33 18 -7 18 -49 1 -56 -19 -7 -32 4 -32 28 0 26 -31 31
-56 9 -13 -12 -16 -21 -9 -29 8 -9 6 -14 -5 -19 -18 -7 -20 -33 -2 -39 6 -2 0
-8 -15 -12 -16 -4 -28 -11 -28 -16 0 -5 -5 -9 -11 -9 -6 0 -8 9 -4 20 4 13 2
20 -6 20 -8 0 -5 7 6 20 18 20 17 20 -21 20 -39 -1 -74 -18 -74 -38 0 -14 -38
-26 -72 -23 -20 2 -28 -2 -28 -13 0 -9 5 -16 11 -16 5 0 7 -5 4 -10 -4 -6 -10
-8 -15 -5 -5 3 -21 0 -36 -6 -20 -7 -25 -12 -15 -18 9 -6 7 -10 -8 -14 -12 -3
-21 -1 -21 4 0 16 -47 9 -69 -11 -13 -10 -44 -22 -69 -26 -107 -16 -306 1
-380 32 -18 8 -43 14 -55 14 -17 0 -19 2 -7 10 22 14 5 23 -45 23 -25 0 -45 4
-45 8 0 4 -9 10 -19 14 -13 4 -18 11 -14 22 5 12 2 15 -10 10 -20 -7 -76 27
-102 63 l-18 25 27 -25 c23 -20 29 -22 36 -10 12 19 -38 73 -61 67 -15 -4 -49
24 -49 40 0 3 -8 11 -17 18 -16 12 -14 12 10 8 35 -7 50 23 21 44 -10 8 -18
20 -16 27 1 8 -5 17 -15 20 -15 6 -15 8 -3 16 13 8 13 14 -2 40 -14 25 -15 30
-2 30 10 0 13 7 8 25 -4 15 -2 25 5 25 24 0 11 38 -15 44 -20 5 -24 10 -16 18
9 9 8 16 -2 27 -21 25 -25 93 -7 112 21 21 51 31 51 18 0 -7 9 -9 21 -6 12 3
32 1 45 -5 20 -9 26 -7 43 13 11 13 20 30 21 37 0 19 -24 14 -38 -8 -7 -12
-18 -17 -28 -13 -9 3 -11 9 -6 12 5 3 14 16 21 29 11 21 13 21 41 7 32 -17 60
-11 60 12 0 11 -7 14 -21 10 l-21 -6 21 20 c11 11 21 24 21 30 0 23 32 39 82
43 41 2 53 7 52 19 -2 19 53 34 69 18 15 -15 47 5 47 29 0 11 5 20 10 20 17 0
11 -25 -10 -48 -27 -29 -25 -49 7 -55 37 -7 55 2 48 24 -4 11 -2 19 4 19 6 0
11 -5 11 -11 0 -5 5 -7 10 -4 6 4 8 11 4 17 -3 5 8 2 25 -6 17 -9 31 -21 31
-26 0 -15 17 -12 36 8 17 16 17 16 11 0 -8 -22 12 -35 25 -17 7 11 11 11 15 2
2 -7 11 -13 19 -13 8 0 17 -7 21 -16 4 -12 14 -14 39 -9 21 3 34 2 34 -4 0 -6
12 -8 29 -5 23 5 30 2 36 -15 9 -28 31 -27 39 3 6 23 8 23 41 13 29 -8 38 -7
53 6 25 23 27 22 28 -13 1 -22 -3 -30 -17 -30 -9 0 -19 4 -21 10 -4 12 -78 -7
-78 -20 0 -13 47 -13 55 0 10 15 25 12 25 -6 0 -11 8 -14 28 -12 15 2 26 8 25
13 -1 6 18 10 42 11 24 0 42 -3 40 -7 -3 -3 14 -9 36 -13 29 -5 44 -2 55 8 8
9 21 13 29 9 9 -3 22 0 30 7 8 6 20 8 26 4 9 -5 5 -10 -10 -16 -32 -11 -25
-53 8 -53 27 0 54 34 33 42 -17 6 4 33 25 33 10 0 14 7 10 20 -3 11 -1 18 3
15 5 -3 20 -1 34 5 21 8 26 7 26 -6 0 -23 33 -13 40 13 6 26 49 77 57 69 4 -3
-2 -15 -12 -25 -17 -19 -16 -20 9 -27 33 -8 37 -4 39 38 1 22 -2 32 -10 30 -7
-1 -13 2 -13 7 0 6 -8 10 -17 10 -39 1 -53 5 -53 13 0 5 -10 13 -22 18 -16 6
-18 9 -7 9 21 1 28 20 22 54 -3 15 -1 27 5 27 6 0 8 -9 5 -20 -4 -14 0 -20 11
-20 9 0 16 4 16 8 0 5 15 14 33 21 32 13 32 13 34 86 2 66 0 75 -17 80 -20 6
-28 35 -10 35 16 0 12 14 -10 38 -12 12 -16 22 -10 22 5 0 10 5 10 10 0 6 -7
10 -15 10 -9 0 -15 9 -15 21 0 12 -7 27 -15 33 -11 8 -15 33 -16 101 -2 128
-3 123 26 117 19 -3 25 0 25 14 0 14 3 15 12 6 12 -12 58 -17 58 -6 0 3 -7 13
-16 22 -11 10 -13 17 -5 20 8 3 8 9 0 24 -6 11 -17 17 -25 14 -17 -6 -20 29
-4 39 8 5 8 11 1 19 -14 16 -4 26 17 19 12 -5 14 -2 9 11 -4 10 -7 20 -7 22 0
2 -7 4 -16 4 -12 0 -15 6 -10 25 5 21 2 27 -21 36 -15 6 -31 16 -35 22 -6 9
-12 9 -28 0 -25 -16 -38 -17 -22 -1 20 20 14 28 -19 28 -26 0 -29 3 -24 20 5
15 2 20 -12 20 -32 0 -46 -16 -41 -44 4 -17 1 -25 -6 -23 -6 3 -10 10 -8 16 1
6 -10 11 -25 10 -24 0 -25 -1 -8 -8 19 -8 19 -8 -3 -22 -12 -8 -22 -19 -22
-26 0 -6 -4 -15 -10 -18 -5 -3 -7 0 -4 8 3 8 1 18 -5 21 -13 8 -4 35 23 64
l20 23 -32 32 c-31 31 -32 31 -60 15 -15 -10 -26 -24 -26 -33 2 -12 -1 -13
-11 -5 -7 6 -11 20 -8 30 4 17 0 20 -26 20 -17 0 -31 5 -31 10 0 6 13 10 28
10 15 0 33 5 40 12 9 9 16 8 30 -5 28 -26 52 -22 52 9 0 21 -4 25 -20 21 -11
-3 -20 -1 -20 5 0 6 -9 8 -20 5 -16 -4 -20 0 -20 19 0 37 -43 28 -53 -11 -3
-16 -6 -13 -12 13 -4 17 -13 32 -20 32 -14 0 -26 -23 -21 -42 1 -7 1 -10 -1
-5 -8 12 -63 8 -64 -5 0 -7 -5 -1 -11 15 -5 15 -16 27 -24 27 -8 0 -14 6 -14
13 0 6 -4 18 -9 26 -8 12 -13 12 -24 3 -8 -7 -25 -11 -38 -10 -20 3 -24 -2
-27 -29 -2 -18 -8 -33 -14 -33 -6 0 -8 -9 -5 -20 3 -11 1 -17 -4 -14 -5 3 -6
22 -3 44 5 33 3 39 -15 45 -38 12 -59 -19 -21 -33 14 -5 17 -11 10 -22 -7 -11
-10 -11 -10 -2 0 7 -4 11 -9 7 -6 -3 -13 10 -16 29 -5 22 -14 36 -26 39 -10 3
-24 18 -31 34 -7 15 -13 29 -14 31 -1 2 -12 -1 -23 -8 -18 -9 -21 -8 -21 10 0
13 7 20 20 20 11 0 20 5 20 11 0 6 -9 9 -20 6 -12 -3 -20 0 -20 8 0 15 -35 26
-56 18 -8 -3 -14 -9 -14 -14 0 -5 -4 -9 -10 -9 -5 0 -10 14 -10 31 0 44 -23
32 -34 -19 -13 -56 -24 -53 -22 6 1 44 0 47 -24 44 -24 -3 -24 -2 -5 13 20 16
20 16 -2 12 -19 -4 -23 -1 -23 19 0 27 -6 30 -25 10 -10 -10 -11 -16 -2 -25 8
-8 8 -11 0 -11 -6 0 -14 -8 -16 -17 -4 -16 -5 -16 -6 1 -1 12 -6 16 -17 12 -9
-3 -22 -6 -30 -6 -26 0 -14 -18 16 -25 17 -4 30 -10 30 -13 0 -4 3 -17 6 -29
4 -14 2 -23 -5 -23 -6 0 -13 11 -17 25 -4 15 -13 25 -24 25 -11 0 -22 5 -25
10 -4 6 -16 8 -28 4 -22 -6 -22 -6 -2 10 18 14 18 15 3 16 -17 0 -22 10 -19
38 3 17 -28 27 -41 14 -8 -8 -8 -15 1 -26 8 -10 9 -16 1 -21 -5 -3 -10 -1 -10
4 0 6 -4 11 -9 11 -5 0 -8 -8 -6 -17 1 -10 0 -12 -2 -5 -6 17 -33 15 -33 -3 0
-8 -4 -15 -10 -15 -5 0 -10 6 -10 14 0 8 -6 17 -12 19 -14 6 15 10 45 8 9 -1
17 2 17 8 0 5 3 16 6 25 8 21 -10 20 -31 0 -19 -19 -32 -10 -37 26 -3 28 -38
42 -38 16 0 -20 -47 -74 -71 -81 -11 -4 -19 -13 -19 -20 0 -8 -4 -16 -9 -19
-5 -4 -7 3 -4 14 6 21 -15 28 -33 10 -13 -13 -54 -1 -54 16 0 19 -29 18 -36
-1 -8 -20 -24 -9 -24 16 0 38 -19 18 -26 -26 -6 -45 -7 -45 -26 -28 -13 12
-21 14 -26 6 -4 -6 -16 -11 -27 -10 -17 2 -20 -5 -23 -51 -2 -30 2 -60 8 -67
7 -8 8 -20 4 -26 -4 -7 -11 -26 -15 -43 -5 -24 -7 -26 -8 -8 -1 15 -7 22 -21
22 -11 0 -20 7 -20 15 0 8 -4 15 -10 15 -14 0 -12 -27 3 -33 9 -4 9 -7 -1 -15
-9 -6 -12 -35 -10 -105 2 -83 5 -97 19 -97 9 0 20 -8 24 -17 5 -15 4 -16 -6
-5 -19 18 -29 15 -30 -10 -1 -17 -2 -19 -6 -5 -5 20 -26 22 -41 4 -15 -18 2
-41 25 -35 13 4 19 0 19 -13 0 -14 -6 -17 -23 -13 -26 7 -33 -13 -8 -22 8 -4
15 -11 15 -16 0 -6 -6 -5 -15 2 -26 22 -37 2 -29 -57 4 -33 3 -54 -2 -50 -11
6 -10 -90 0 -168 15 -114 21 -345 17 -620 -3 -178 -3 -171 12 -187 8 -7 17
-30 21 -50 6 -33 5 -36 -14 -31 -15 4 -20 1 -20 -15 0 -11 8 -22 20 -25 12 -3
20 -14 20 -26 0 -14 6 -21 19 -21 11 0 23 -4 26 -10 9 -15 51 -12 65 5 10 12
10 15 -1 15 -11 0 -11 2 1 10 21 14 30 12 30 -4 0 -8 6 -17 13 -20 6 -3 2 -3
-10 -1 -25 7 -42 -13 -22 -26 11 -6 11 -11 1 -21 -9 -9 -12 -9 -12 0 0 7 -7
12 -15 12 -8 0 -15 -7 -15 -15 0 -8 7 -15 15 -15 8 0 15 -5 15 -10 0 -6 -3 -9
-7 -9 -23 4 -35 -3 -29 -16 3 -8 1 -15 -4 -15 -5 0 -13 -18 -16 -40 -4 -22
-10 -40 -14 -40 -12 0 -42 -104 -30 -108 15 -5 12 -22 -5 -22 -18 0 -20 -17
-3 -22 16 -6 -12 -43 -32 -43 -8 0 -16 -9 -18 -19 -3 -15 0 -18 17 -13 12 3
21 2 21 -3 0 -4 -9 -10 -20 -13 -16 -4 -20 -14 -20 -49 0 -23 -3 -53 -6 -65
-5 -17 -2 -23 10 -23 10 0 13 -6 10 -15 -4 -10 0 -15 11 -15 14 0 13 -4 -6
-19 -22 -18 -23 -21 -8 -36 14 -14 21 -15 38 -5 13 6 19 16 15 23 -4 7 1 4 12
-5 11 -10 37 -19 57 -22 52 -6 89 -24 111 -53 18 -25 18 -25 -3 -18 -12 3 -21
2 -21 -4 0 -5 9 -13 20 -16 11 -3 20 -11 20 -16 0 -5 6 -9 13 -9 7 0 17 -10
22 -22 6 -12 21 -25 35 -29 23 -6 22 -7 -7 -8 -40 -1 -41 -8 -6 -41 22 -21 23
-26 9 -28 -9 -2 -14 -7 -11 -12 3 -5 13 -6 22 -3 12 5 14 3 8 -6 -4 -8 -2 -17
6 -22 10 -6 11 -9 2 -9 -7 0 -13 -7 -13 -15 0 -21 -8 -19 -52 11 -21 15 -38
35 -38 45 0 11 -4 19 -10 19 -5 0 -10 -11 -10 -25 0 -30 -24 -43 -46 -25 -25
22 -42 -4 -19 -30 10 -11 13 -20 7 -20 -7 0 -12 -4 -12 -9 0 -5 8 -7 19 -4 10
3 22 0 25 -6 4 -7 1 -8 -8 -5 -10 4 -16 1 -16 -10 0 -12 -7 -14 -32 -9 -38 7
-49 13 -25 13 21 0 22 19 2 27 -9 3 -22 -2 -30 -13 -12 -17 -11 -21 8 -36 12
-9 21 -27 21 -39 0 -33 -19 -34 -22 -2 -1 16 -10 35 -20 43 -10 9 -17 21 -14
28 2 6 -1 12 -7 12 -6 0 -11 -5 -11 -10 0 -6 -6 -10 -12 -9 -45 5 -51 -12 -10
-28 25 -10 25 -11 5 -12 -13 -1 -23 -6 -23 -12 0 -7 10 -9 25 -7 13 3 22 1 19
-3 -6 -10 22 -63 49 -95 16 -19 16 -22 3 -27 -11 -5 -20 4 -31 29 -12 30 -17
34 -34 25 -28 -15 -41 -14 -41 5 0 13 3 14 14 5 9 -8 16 -8 20 -2 4 5 1 13 -4
16 -6 4 -15 18 -20 31 -7 18 -17 24 -40 24 -42 0 -66 15 -74 44 -7 28 -63 47
-76 26 -4 -6 -18 -9 -31 -6 -27 7 -81 -30 -63 -42 6 -4 13 -17 17 -30 5 -20 2
-22 -16 -16 -33 10 -48 28 -17 20 14 -3 19 -3 13 0 -7 3 -13 12 -13 19 0 17
-17 23 -48 17 -15 -3 -21 -9 -18 -19 3 -8 6 -21 6 -29 0 -8 9 -14 20 -14 13 0
18 -5 13 -16 -4 -11 -9 -12 -16 -5 -16 16 -57 13 -63 -4 -4 -8 -1 -22 6 -30
10 -12 9 -15 -8 -15 -13 0 -25 -11 -34 -30 -15 -34 -28 -39 -28 -10 0 11 6 19
13 18 6 -2 10 4 9 12 -10 42 -10 50 0 50 6 0 4 8 -5 18 -19 21 -22 42 -7 42
21 0 9 16 -22 29 -22 9 -28 15 -18 18 7 3 16 1 18 -5 5 -15 32 -16 32 -2 0 6
-6 10 -14 10 -8 0 -17 7 -20 16 -7 18 -52 15 -48 -4 1 -6 -7 -12 -18 -12 -11
0 -17 5 -15 12 3 7 -6 25 -20 40 -24 27 -25 28 -5 28 31 0 24 20 -7 21 -17 1
-21 3 -10 6 19 5 22 19 6 29 -6 3 -15 0 -20 -7 -5 -8 -9 -9 -9 -4 0 23 15 32
38 24 12 -5 22 -12 22 -17 0 -11 47 -34 77 -38 25 -3 51 22 37 36 -11 11 -54
2 -54 -11 0 -5 -5 -9 -10 -9 -6 0 -3 11 5 24 10 15 12 26 6 30 -14 9 27 76 46
76 8 0 11 5 8 10 -3 6 -1 10 4 10 20 0 11 37 -11 48 l-23 11 25 -2 c20 -2 25
2 23 20 -2 13 2 23 7 23 6 0 10 -4 10 -10 0 -5 13 -8 30 -7 34 2 34 2 20 27
-8 15 -5 23 15 38 14 11 25 27 25 35 0 8 13 17 29 20 18 4 32 14 36 27 3 11
11 20 16 20 15 0 10 19 -11 40 -11 11 -15 20 -10 20 15 0 1 72 -16 86 -12 10
-11 12 6 17 11 3 20 11 20 17 0 7 -6 10 -13 7 -24 -9 -36 8 -42 53 -3 25 -10
47 -15 48 -16 6 -11 20 7 24 15 3 15 4 0 19 -20 21 -49 121 -41 142 3 10 1 17
-5 17 -6 0 -11 8 -10 18 0 10 3 12 6 5 7 -18 23 -16 23 2 0 8 5 15 10 15 6 0
10 12 11 28 0 15 3 21 6 15 10 -27 23 -11 23 27 0 22 -4 40 -10 40 -5 0 -10 5
-10 10 0 6 6 10 13 10 9 0 12 45 13 187 1 131 4 188 13 191 14 5 15 102 1 102
-12 0 -13 37 -1 42 11 4 24 78 14 78 -4 0 -6 29 -5 65 3 46 0 65 -8 65 -10 0
-10 3 -1 14 8 10 9 16 1 21 -13 8 -13 45 0 45 5 0 13 18 16 40 4 22 10 40 15
40 5 0 9 7 9 15 0 8 -5 15 -11 15 -6 0 -8 7 -5 17 9 23 -14 163 -32 191 -8 12
-12 34 -9 49 3 15 3 33 0 40 -9 22 -23 14 -23 -12 0 -16 -6 -25 -15 -25 -14 0
-20 18 -16 49 2 7 -4 11 -11 9 -8 -3 -12 -17 -10 -36 2 -18 -1 -32 -6 -32 -12
0 -22 49 -11 55 4 3 6 22 3 43 -3 27 -2 32 5 17 4 -11 7 -23 4 -27 -2 -5 3 -8
11 -8 10 0 16 9 16 25 0 14 5 25 10 25 6 0 10 6 10 14 0 9 7 12 19 9 23 -6 39
16 20 28 -11 7 -10 9 4 9 20 0 21 9 3 33 -18 24 -26 21 -26 -8 0 -14 -5 -25
-11 -25 -7 0 -10 12 -7 30 5 32 -33 87 -51 75 -6 -3 -11 -1 -11 4 0 6 -6 11
-13 11 -15 0 -18 42 -4 51 16 11 21 107 7 124 -7 9 -17 12 -24 7 -6 -5 -24 -5
-41 -1 -16 3 -24 7 -17 8 6 0 12 6 12 12 0 6 -7 9 -15 5 -10 -4 -15 1 -15 15
0 15 -5 19 -16 15 -9 -3 -18 -6 -20 -6 -2 0 -4 -8 -5 -17 0 -11 -3 -13 -6 -5
-2 6 -13 12 -24 12 -14 0 -19 -7 -20 -27 -1 -19 -3 -22 -6 -10 -4 15 -11 17
-36 11 -18 -3 -35 -11 -38 -17 -4 -6 -15 -4 -28 5 -11 8 -18 17 -15 21 14 14
-8 46 -34 49 -19 2 -28 10 -30 26 -2 14 -10 22 -23 22 -14 0 -19 -7 -19 -30z
m-40 -96 c0 -2 -9 -4 -20 -4 -11 0 -20 4 -20 9 0 5 9 7 20 4 11 -3 20 -7 20
-9z m1114 -9 c3 -8 1 -15 -4 -15 -6 0 -10 7 -10 15 0 8 2 15 4 15 2 0 6 -7 10
-15z m449 -45 c-3 -10 -11 -25 -19 -31 -16 -13 -19 -39 -4 -39 6 0 10 -18 8
-44 -2 -32 -6 -42 -14 -35 -29 24 -27 139 2 139 8 0 14 7 14 15 0 8 4 15 9 15
5 0 7 -9 4 -20z m246 -27 c0 -5 -4 -17 -9 -28 -8 -18 -9 -17 -9 8 -1 15 4 27
9 27 6 0 10 -3 9 -7z m50 -15 c12 -15 11 -18 -3 -18 -10 0 -16 8 -16 22 0 12
1 19 3 17 1 -2 9 -12 16 -21z m-2264 -18 c3 -5 1 -10 -4 -10 -6 0 -11 5 -11
10 0 6 2 10 4 10 3 0 8 -4 11 -10z m2142 -32 c-3 -7 -5 -2 -5 12 0 14 2 19 5
13 2 -7 2 -19 0 -25z m-1327 -38 c0 -5 -5 -10 -11 -10 -5 0 -7 5 -4 10 3 6 8
10 11 10 2 0 4 -4 4 -10z m-1000 -41 c0 -6 -4 -7 -10 -4 -5 3 -10 11 -10 16 0
6 5 7 10 4 6 -3 10 -11 10 -16z m1060 1 c0 -5 -7 -7 -15 -4 -8 4 -15 8 -15 10
0 2 7 4 15 4 8 0 15 -4 15 -10z m1730 -20 c6 -11 7 -20 2 -20 -10 0 -32 21
-32 32 0 16 19 8 30 -12z m-1715 -30 c3 -5 2 -10 -4 -10 -5 0 -13 5 -16 10 -3
6 -2 10 4 10 5 0 13 -4 16 -10z m470 -8 c-3 -3 -11 0 -18 7 -9 10 -8 11 6 5
10 -3 15 -9 12 -12z m1295 14 c0 -3 -4 -8 -10 -11 -5 -3 -10 -1 -10 4 0 6 5
11 10 11 6 0 10 -2 10 -4z m250 -112 c0 -8 -4 -12 -10 -9 -5 3 -10 10 -10 16
0 5 5 9 10 9 6 0 10 -7 10 -16z m-1535 -84 c3 -5 1 -10 -4 -10 -6 0 -11 5 -11
10 0 6 2 10 4 10 3 0 8 -4 11 -10z m1603 -10 c1 -11 2 -26 3 -32 0 -7 -2 -33
-4 -58 -3 -25 -6 -55 -6 -68 -1 -15 -6 -22 -13 -19 -19 6 -48 -11 -48 -28 0
-17 -9 -19 -30 -5 -13 9 -13 10 1 10 8 0 26 11 39 25 21 23 23 28 11 47 -11
18 -11 23 3 33 19 14 21 26 4 20 -9 -4 -13 5 -12 27 3 55 3 56 27 61 12 2 22
5 22 6 1 0 2 -8 3 -19z m86 -21 c14 12 19 11 36 -9 11 -12 25 -19 32 -15 7 3
5 0 -6 -9 -11 -9 -16 -21 -12 -32 5 -12 2 -15 -10 -10 -13 5 -15 1 -9 -21 l6
-27 -20 25 c-17 21 -22 22 -40 12 -13 -8 -22 -9 -26 -3 -3 6 -1 10 4 10 6 0
11 11 11 25 0 14 -4 25 -9 25 -4 0 -6 11 -3 25 4 23 6 24 17 8 11 -15 15 -15
29 -4z m-2114 1 c0 -5 -5 -10 -11 -10 -5 0 -7 5 -4 10 3 6 8 10 11 10 2 0 4
-4 4 -10z m1960 -253 c0 -21 -7 -36 -19 -44 -17 -11 -18 -9 -11 21 14 61 30
74 30 23z m-3646 -223 c-5 -28 -3 -35 12 -40 11 -3 38 -15 61 -27 39 -20 75
-17 43 3 -12 8 -11 10 6 10 12 0 33 9 47 20 23 18 63 18 52 0 -2 -4 -7 -29
-10 -56 -4 -27 -10 -50 -16 -52 -5 -2 -9 -10 -9 -17 0 -18 -30 -28 -46 -14 -8
6 -20 9 -27 6 -8 -3 -22 6 -32 19 -9 13 -21 21 -26 18 -5 -3 -9 0 -9 5 0 6 5
11 10 11 18 0 11 39 -9 50 -27 14 -32 13 -29 -7 4 -23 -40 -25 -64 -3 -9 8
-24 21 -33 28 -20 17 -19 32 3 33 9 1 22 2 27 4 6 1 16 3 23 3 6 1 12 14 12
28 0 15 4 23 10 19 6 -4 8 -21 4 -41z m306 -8 c0 -2 -8 -10 -17 -17 -16 -13
-17 -12 -4 4 13 16 21 21 21 13z m-56 -61 c-4 -8 -11 -15 -16 -15 -6 0 -5 6 2
15 7 8 14 15 16 15 2 0 1 -7 -2 -15z m-394 -127 c0 -38 -5 -34 -13 10 -4 21
-3 31 3 27 6 -3 10 -20 10 -37z m127 20 c-3 -8 -6 -5 -6 6 -1 11 2 17 5 13 3
-3 4 -12 1 -19z m240 -35 c-3 -10 -5 -2 -5 17 0 19 2 27 5 18 2 -10 2 -26 0
-35z m3648 -53 c3 -5 -1 -10 -9 -10 -9 0 -16 5 -16 10 0 6 4 10 9 10 6 0 13
-4 16 -10z m-1535 -80 c0 -5 -2 -10 -4 -10 -3 0 -8 5 -11 10 -3 6 -1 10 4 10
6 0 11 -4 11 -10z m1495 -1 c11 -16 1 -19 -13 -3 -7 8 -8 14 -3 14 5 0 13 -5
16 -11z m-20 -27 c-3 -3 -11 0 -18 7 -9 10 -8 11 6 5 10 -3 15 -9 12 -12z
m-1422 -26 c3 -8 0 -19 -6 -24 -9 -8 -12 -4 -13 14 -2 26 11 33 19 10z m1427
-16 c12 -8 11 -10 -7 -10 -13 0 -23 5 -23 10 0 13 11 13 30 0z m-3203 -26 c2
-6 -3 -11 -12 -11 -8 0 -15 7 -15 15 0 15 22 12 27 -4z m55 -26 c-6 -6 -15 -8
-19 -4 -4 4 -1 11 7 16 19 12 27 3 12 -12z m400 -20 c21 -12 29 -48 9 -48 -15
0 -29 23 -23 38 4 11 1 14 -12 9 -10 -4 -15 -3 -11 3 8 13 8 13 37 -2z m1813
-6 c-3 -3 -11 0 -18 7 -9 10 -8 11 6 5 10 -3 15 -9 12 -12z m753 -18 c-4 -3
-12 5 -18 18 -12 22 -12 22 6 6 10 -10 15 -20 12 -24z m-164 -6 c-3 -4 -15
-13 -27 -20 -20 -10 -21 -10 -8 5 7 9 11 23 7 32 -4 12 -2 13 14 3 10 -7 16
-16 14 -20z m-2664 12 c0 -6 14 -9 31 -8 20 2 34 -3 40 -15 13 -23 35 -22 42
3 3 11 12 20 21 20 20 0 33 -47 17 -63 -8 -8 -11 -8 -11 1 0 7 -6 12 -12 10
-13 -3 -79 15 -125 33 -23 9 -32 29 -13 29 6 0 10 -5 10 -10z m2898 -33 c2
-20 -1 -37 -6 -37 -14 0 -23 28 -12 35 15 9 12 25 -5 25 -7 0 -19 -8 -24 -17
-10 -17 -10 -17 -11 -1 0 18 28 39 45 34 6 -1 11 -19 13 -39z m-2571 27 c-3
-3 -12 -4 -19 -1 -8 3 -5 6 6 6 11 1 17 -2 13 -5z m136 -241 c-5 -12 -2 -15 8
-11 8 3 20 0 26 -7 9 -10 9 -14 -2 -19 -8 -3 -15 0 -15 5 0 6 -9 9 -19 6 -19
-5 -22 7 -8 31 12 17 17 15 10 -5z m1017 -37 c0 -3 -4 -8 -10 -11 -5 -3 -10
-1 -10 4 0 6 5 11 10 11 6 0 10 -2 10 -4z m53 -164 c-7 -16 -15 -8 -32 32
l-12 29 24 -23 c14 -13 22 -30 20 -38z m-1013 -72 c0 -5 -5 -10 -11 -10 -5 0
-7 5 -4 10 3 6 8 10 11 10 2 0 4 -4 4 -10z m2523 -140 c-3 -11 -7 -20 -9 -20
-2 0 -4 9 -4 20 0 11 4 20 9 20 5 0 7 -9 4 -20z m-3857 -19 c-3 -5 1 -14 9
-21 21 -17 19 -30 -5 -30 -14 0 -20 7 -20 23 0 13 3 27 7 30 9 10 15 9 9 -2z
m96 -79 c-22 -7 -12 -17 18 -19 60 -4 60 -4 43 -30 -8 -12 -22 -23 -30 -23 -8
0 -11 -5 -8 -10 4 -6 16 -8 28 -5 18 5 19 4 7 -4 -13 -10 -13 -12 0 -21 8 -5
11 -10 7 -10 -4 0 -21 10 -37 21 -24 18 -27 25 -19 46 12 32 11 36 -4 30 -8
-3 -20 -1 -27 3 -11 7 -11 11 -1 24 7 9 18 13 24 9 8 -5 7 -8 -1 -11z m-75 2
c-3 -3 -12 -4 -19 -1 -8 3 -5 6 6 6 11 1 17 -2 13 -5z m-30 -36 c-3 -8 -6 -5
-6 6 -1 11 2 17 5 13 3 -3 4 -12 1 -19z m3543 12 c0 -5 -4 -10 -9 -10 -6 0
-13 5 -16 10 -3 6 1 10 9 10 9 0 16 -4 16 -10z m110 -54 c0 -3 -4 -8 -10 -11
-5 -3 -10 -1 -10 4 0 6 5 11 10 11 6 0 10 -2 10 -4z m-39 -29 c-8 -8 -14 -7
-23 2 -11 10 -9 11 6 5 15 -6 17 -4 11 6 -6 9 -4 11 4 5 9 -5 10 -10 2 -18z
m171 -1 c5 -24 -12 -56 -30 -56 -6 0 -12 -6 -15 -12 -3 -10 -9 -10 -25 -1 -17
10 -21 9 -26 -4 -4 -9 -9 -13 -13 -9 -12 11 31 47 50 42 26 -6 54 21 38 37
-15 15 -14 27 3 27 7 0 16 -11 18 -24z m-102 -100 c0 -2 3 -13 6 -23 5 -17 5
-17 -6 0 -12 19 -30 23 -30 6 0 -23 -76 -80 -97 -72 -12 5 -15 2 -10 -10 5
-13 1 -17 -16 -17 -21 0 -21 1 8 29 18 17 33 24 37 18 9 -14 39 11 36 29 -4
16 31 43 55 44 9 0 17 -2 17 -4z m-2175 -76 c3 -5 2 -10 -4 -10 -5 0 -13 5
-16 10 -3 6 -2 10 4 10 5 0 13 -4 16 -10z m2005 -62 c-1 -17 -30 -56 -30 -40
0 7 -8 12 -17 12 -15 1 -14 4 6 20 27 23 41 25 41 8z m-98 -78 c-12 -16 -22
-34 -22 -40 0 -5 -8 -10 -19 -10 -10 0 -24 -6 -31 -14 -6 -8 -18 -12 -26 -9
-9 3 -14 -2 -14 -16 0 -12 -4 -21 -8 -21 -5 0 -17 -16 -28 -35 -17 -31 -20
-33 -34 -19 -13 14 -13 17 8 34 12 10 22 23 22 29 0 6 5 11 10 11 6 0 10 5 10
11 0 6 14 22 30 36 17 13 30 31 30 38 0 13 23 26 52 30 10 1 21 5 25 8 3 4 9
5 11 2 3 -3 -4 -19 -16 -35z m48 15 c-7 -9 -15 -13 -17 -11 -7 7 7 26 19 26 6
0 6 -6 -2 -15z m-3886 -92 c-5 -5 -12 -12 -16 -18 -4 -6 -8 -2 -8 8 0 9 7 17
17 17 9 0 12 -3 7 -7z m2793 -75 c-4 -12 -1 -28 5 -35 7 -9 7 -13 -1 -13 -6 0
-11 5 -11 10 0 6 -7 10 -16 10 -8 0 -12 -4 -9 -10 3 -5 1 -10 -4 -10 -6 0 -11
5 -11 11 0 6 -9 8 -22 4 -18 -5 -20 -4 -8 4 13 10 13 12 0 21 -12 8 -10 10 10
11 14 1 33 2 43 1 9 -1 17 3 17 8 0 6 3 10 6 10 4 0 4 -10 1 -22z m553 -8 c13
-8 12 -10 -3 -10 -10 0 -20 -7 -23 -15 -4 -8 -17 -15 -29 -15 -13 0 -25 -4
-27 -8 -1 -5 -19 -12 -38 -15 -32 -6 -33 -5 -16 8 10 7 15 18 12 24 -4 6 5 13
19 17 14 3 25 10 25 15 0 12 61 11 80 -1z m-1505 -20 c-3 -5 -12 -10 -18 -10
-7 0 -6 4 3 10 19 12 23 12 15 0z m445 6 c0 -3 -4 -8 -10 -11 -5 -3 -10 -1
-10 4 0 6 5 11 10 11 6 0 10 -2 10 -4z m404 -5 c4 -5 -3 -7 -14 -4 -23 6 -26
13 -6 13 8 0 17 -4 20 -9z m706 -31 c4 0 10 10 13 22 6 20 8 20 24 7 30 -25
66 -39 110 -41 22 -2 39 -6 36 -10 -2 -5 -1 -8 4 -8 17 0 30 16 38 45 4 17 10
24 12 18 3 -7 11 -13 19 -13 9 0 13 -4 9 -10 -3 -5 -13 -6 -22 -3 -11 4 -14 3
-9 -6 10 -16 -34 -52 -56 -45 -9 3 -19 0 -23 -6 -5 -8 -14 -6 -31 4 -13 9 -31
16 -41 16 -14 0 -15 2 -4 9 10 7 10 10 1 16 -7 4 -15 3 -19 -3 -4 -7 -12 -8
-20 -2 -8 4 -19 6 -26 4 -6 -3 -27 2 -46 10 l-34 15 25 9 c21 8 26 6 28 -9 2
-11 7 -19 12 -19z m-663 -27 c-3 -10 -5 -4 -5 12 0 17 2 24 5 18 2 -7 2 -21 0
-30z m43 -9 c-19 -19 -21 -27 -12 -33 10 -6 10 -11 -3 -21 -13 -10 -15 -9 -15
6 -1 18 -1 18 -14 2 -15 -20 -40 -24 -34 -6 2 6 13 16 23 22 26 15 48 36 38
37 -7 0 24 16 36 18 3 1 -6 -10 -19 -25z m394 10 c9 -3 13 -10 10 -15 -3 -5 0
-9 5 -9 6 0 11 -5 11 -11 0 -7 -14 -8 -39 -4 -25 4 -41 2 -46 -5 -14 -23 -87
-69 -101 -63 -13 5 -12 8 2 24 12 14 20 16 25 8 9 -15 30 -2 23 15 -3 8 -1 17
5 21 6 3 11 1 11 -5 0 -6 5 -8 11 -5 6 4 8 13 5 21 -3 8 -4 14 -2 14 3 0 12 3
22 7 12 4 15 3 10 -5 -5 -8 -2 -10 8 -6 9 3 13 10 10 15 -6 10 7 12 30 3z
m-1033 -57 c-10 -9 -11 -8 -5 6 3 10 9 15 12 12 3 -3 0 -11 -7 -18z m202 8
c-3 -9 -8 -14 -10 -11 -3 3 -2 9 2 15 9 16 15 13 8 -4z m40 -18 c7 -6 19 -21
27 -32 11 -15 7 -14 -15 5 -17 14 -34 28 -39 32 -6 5 -5 8 3 8 7 0 18 -6 24
-13z m191 -2 c3 -8 1 -15 -4 -15 -6 0 -10 7 -10 15 0 8 2 15 4 15 2 0 6 -7 10
-15z m209 -25 c-3 -11 -12 -20 -19 -20 -18 0 -18 5 2 24 20 21 23 20 17 -4z
m-718 -10 c3 -6 -4 -10 -17 -10 -18 0 -20 2 -8 10 19 12 18 12 25 0z m568 -12
c3 -10 8 -10 21 1 15 12 19 12 26 1 5 -7 3 -21 -3 -32 -9 -15 -19 -18 -41 -14
-34 7 -32 5 -40 34 -6 18 -3 22 12 22 11 0 22 -6 25 -12z m369 -28 c-12 -11
-25 -20 -29 -20 -9 1 36 40 45 40 3 0 -4 -9 -16 -20z m-586 -18 c-17 -16 -18
-16 -5 5 7 12 15 20 18 17 3 -2 -3 -12 -13 -22z m1917 -8 c9 -10 -4 -34 -19
-34 -16 0 -16 2 -8 24 6 17 16 20 27 10z m-1913 -18 c0 -3 -4 -8 -10 -11 -5
-3 -10 -1 -10 4 0 6 5 11 10 11 6 0 10 -2 10 -4z m562 -32 c-32 -65 -43 -79
-61 -82 -11 -2 -21 -10 -23 -17 -2 -10 -8 -12 -17 -6 -15 9 -16 8 54 84 19 21
35 44 35 50 0 8 3 8 11 0 7 -7 7 -17 1 -29z m1251 11 c-3 -9 -8 -14 -10 -11
-3 3 -2 9 2 15 9 16 15 13 8 -4z m-3708 -4 c3 -6 -3 -9 -14 -8 -11 0 -17 5
-15 9 7 11 22 10 29 -1z m3752 3 c-3 -3 -12 -4 -19 -1 -8 3 -5 6 6 6 11 1 17
-2 13 -5z m-77 -21 c0 -1 -9 -7 -20 -13 -15 -8 -20 -8 -20 3 0 7 9 13 20 13
11 0 20 -1 20 -3z m-1885 -13 c16 -6 14 -8 -12 -7 -18 0 -30 4 -27 9 6 10 12
9 39 -2z m2015 6 c0 -3 -4 -8 -10 -11 -5 -3 -10 -1 -10 4 0 6 5 11 10 11 6 0
10 -2 10 -4z m-2130 -10 c0 -11 -19 -15 -25 -6 -3 5 1 10 9 10 9 0 16 -2 16
-4z m220 -10 c0 -3 -4 -8 -10 -11 -5 -3 -10 -1 -10 4 0 6 5 11 10 11 6 0 10
-2 10 -4z m1715 -16 c-3 -5 -10 -10 -16 -10 -5 0 -9 5 -9 10 0 6 7 10 16 10 8
0 12 -4 9 -10z m205 -16 c0 -22 -3 -24 -14 -15 -10 8 -16 9 -21 1 -8 -12 -25
-13 -25 -1 0 5 11 12 25 15 14 4 25 11 25 16 0 6 2 10 5 10 3 0 5 -12 5 -26z
m-1920 -4 c0 -5 -4 -10 -10 -10 -5 0 -10 5 -10 10 0 6 5 10 10 10 6 0 10 -4
10 -10z m420 -38 c-14 -2 -30 -8 -36 -13 -5 -4 -20 -6 -32 -2 -22 5 -22 6 9
29 30 22 32 22 57 6 l26 -17 -24 -3z m-2485 18 c3 -5 -3 -10 -15 -10 -12 0
-18 5 -15 10 3 6 10 10 15 10 5 0 12 -4 15 -10z m2378 -28 c-3 -15 -17 -25
-44 -32 -36 -10 -63 -30 -39 -30 6 0 9 -4 6 -8 -3 -5 -15 -8 -28 -6 -13 1 -26
3 -30 3 -5 1 -8 6 -8 12 0 6 9 8 20 4 19 -6 29 8 13 18 -5 2 -2 2 5 0 21 -5
37 8 21 17 -8 6 2 12 29 19 23 7 44 16 48 22 9 16 14 6 7 -19z m-479 -17 l6
-30 -14 25 c-8 14 -12 28 -9 33 7 11 9 7 17 -28z m-1859 15 c3 -6 -4 -10 -17
-10 -18 0 -20 2 -8 10 19 12 18 12 25 0z m2018 -19 c-6 -3 -13 -16 -17 -28 -8
-24 -21 -30 -31 -13 -3 6 -1 10 4 10 6 0 11 11 11 24 0 15 7 26 18 28 19 4 30
-11 15 -21z m-104 -8 c2 -2 -3 -3 -11 -3 -9 0 -19 7 -22 16 -6 15 -4 15 11 3
10 -7 20 -15 22 -16z m51 17 c0 -5 -5 -10 -11 -10 -5 0 -7 5 -4 10 3 6 8 10
11 10 2 0 4 -4 4 -10z m1670 0 c0 -5 -7 -10 -16 -10 -8 0 -12 5 -9 10 3 6 10
10 16 10 5 0 9 -4 9 -10z m174 -12 c-3 -4 -9 -8 -15 -8 -5 0 -9 4 -9 8 0 5 7
9 15 9 8 0 12 -4 9 -9z m-3770 -13 c12 -13 17 -13 29 -1 9 9 19 11 28 5 10 -6
10 -9 2 -9 -7 0 -13 -5 -13 -11 0 -7 12 -10 30 -7 21 3 27 1 20 -6 -18 -18
-11 -29 15 -24 13 3 22 1 19 -3 -3 -5 -11 -9 -19 -9 -8 0 -20 -9 -28 -20 -14
-20 -14 -20 -35 -1 -12 10 -22 24 -22 31 0 7 -7 10 -15 6 -8 -3 -15 -1 -15 4
0 4 -13 11 -29 15 -16 3 -32 13 -35 21 -7 17 6 18 22 2 6 -6 15 -8 19 -4 4 4
1 11 -7 16 -13 8 -12 10 2 10 9 0 23 -7 32 -15z m-109 -15 c4 -6 11 -7 17 -4
7 4 8 2 4 -4 -10 -16 -24 -15 -42 3 -14 13 -14 15 0 15 8 0 18 -5 21 -10z
m2025 -17 c2 -2 -16 -3 -42 -1 -25 2 -44 6 -42 10 4 7 74 -1 84 -9z m232 -41
c-14 -10 -14 -14 -3 -21 9 -6 10 -11 2 -15 -6 -4 -11 -3 -11 3 0 5 -10 13 -22
17 l-23 7 23 8 c12 5 22 15 22 24 0 13 3 14 14 3 13 -11 13 -15 -2 -26z m-325
6 c-3 -8 -6 -5 -6 6 -1 11 2 17 5 13 3 -3 4 -12 1 -19z m293 -53 c0 -9 -6 -12
-16 -8 -13 5 -13 7 -2 14 17 11 18 11 18 -6z m-25 -33 c-3 -3 -11 0 -18 7 -9
10 -8 11 6 5 10 -3 15 -9 12 -12z m-1835 -42 c0 -5 -5 -10 -11 -10 -5 0 -7 5
-4 10 3 6 8 10 11 10 2 0 4 -4 4 -10z m3010 -5 c0 -8 -2 -15 -4 -15 -2 0 -6 7
-10 15 -3 8 -1 15 4 15 6 0 10 -7 10 -15z m-2860 -15 c0 -5 -4 -10 -10 -10 -5
0 -10 5 -10 10 0 6 5 10 10 10 6 0 10 -4 10 -10z m-90 -19 c0 -5 -7 -11 -14
-14 -10 -4 -13 -1 -9 9 6 15 23 19 23 5z m37 -21 c2 -21 -2 -30 -12 -30 -16 0
-19 18 -9 44 10 25 19 19 21 -14z m2766 23 c-7 -2 -19 -2 -25 0 -7 3 -2 5 12
5 14 0 19 -2 13 -5z m-2835 -47 c-2 0 -15 -12 -30 -25 l-28 -24 0 27 c0 16 4
25 10 21 6 -3 10 -2 10 3 0 6 9 8 20 5 12 -3 19 -6 18 -7z m3124 -13 c31 -29
35 -43 15 -43 -7 0 -23 -9 -36 -21 -12 -12 -25 -18 -29 -14 -4 4 -1 10 6 12
17 7 15 23 -4 23 -14 0 -14 2 1 16 9 9 13 24 10 35 -9 26 4 24 37 -8z m-3537
7 c3 -5 1 -10 -4 -10 -6 0 -11 5 -11 10 0 6 2 10 4 10 3 0 8 -4 11 -10z m472
-77 c-3 -10 -5 -4 -5 12 0 17 2 24 5 18 2 -7 2 -21 0 -30z m3193 33 c0 -3 -4
-8 -10 -11 -5 -3 -10 -1 -10 4 0 6 5 11 10 11 6 0 10 -2 10 -4z m-3596 -22 c3
-8 2 -12 -4 -9 -6 3 -10 10 -10 16 0 14 7 11 14 -7z m446 12 c0 -3 -4 -8 -10
-11 -5 -3 -10 -1 -10 4 0 6 5 11 10 11 6 0 10 -2 10 -4z m-94 -20 c18 5 18 5
0 -6 -15 -10 -21 -9 -35 6 -14 16 -14 17 0 6 9 -7 25 -10 35 -6z m-56 -10 c0
-3 -4 -8 -10 -11 -5 -3 -10 -1 -10 4 0 6 5 11 10 11 6 0 10 -2 10 -4z m2885
-14 c-3 -3 -11 0 -18 7 -9 10 -8 11 6 5 10 -3 15 -9 12 -12z m-2875 -47 c-6
-7 -5 -16 2 -23 8 -8 8 -12 2 -12 -18 0 -33 43 -20 56 14 15 29 -5 16 -21z
m722 1 c-7 -11 -8 -17 -11 -37 0 -7 -11 -9 -25 -5 -15 4 -26 1 -29 -7 -4 -9
-8 -8 -16 3 -10 13 -12 13 -21 0 -12 -19 -60 -21 -53 -3 3 7 0 13 -6 13 -6 0
-11 -4 -11 -10 0 -5 -4 -10 -10 -10 -5 0 -10 8 -10 18 0 21 35 45 58 38 9 -3
33 -2 52 3 52 11 90 10 82 -3z m-210 -38 c-3 -12 -14 -18 -32 -18 -15 0 -33
-6 -39 -13 -6 -8 -26 -13 -45 -13 -42 2 -55 10 -19 13 15 0 30 8 35 17 5 9 16
16 25 16 9 0 13 3 10 7 -4 3 -2 12 3 19 17 19 69 -4 62 -28z m1825 -14 c-3 -3
-12 -4 -19 -1 -8 3 -5 6 6 6 11 1 17 -2 13 -5z m-2027 -14 c0 -5 8 -10 18 -11
9 0 2 -5 -17 -10 -18 -6 -36 -8 -39 -5 -3 3 2 6 11 6 20 0 23 16 5 23 -8 3 -6
6 5 6 9 1 17 -3 17 -9z m2570 -21 c0 -11 -27 -12 -34 0 -3 4 -3 11 0 14 8 8
34 -3 34 -14z m-60 -14 c0 -7 12 -18 28 -23 15 -6 20 -11 10 -11 -9 -1 -18 -6
-20 -13 -8 -22 -33 7 -33 39 0 17 3 29 7 26 5 -2 8 -10 8 -18z m151 -98 c-10
-9 -11 -8 -5 6 3 10 9 15 12 12 3 -3 0 -11 -7 -18z m154 13 c3 -6 -1 -7 -9 -4
-18 7 -21 14 -7 14 6 0 13 -4 16 -10z m-57 -22 c10 -10 14 -10 21 0 12 20 40
4 34 -19 -4 -14 -9 -17 -16 -10 -16 16 -25 14 -30 -6 -4 -14 -5 -12 -6 5 -1
23 -17 30 -23 10 -2 -6 -10 -8 -17 -4 -9 6 -9 11 0 22 14 17 21 18 37 2z
m-514 -30 c-4 -6 -10 -5 -15 3 -14 22 -10 33 6 19 8 -7 12 -17 9 -22z m-2164
2 c0 -5 -4 -10 -10 -10 -5 0 -10 5 -10 10 0 6 5 10 10 10 6 0 10 -4 10 -10z
m2874 -5 c3 -8 1 -15 -3 -15 -5 0 -11 7 -15 15 -3 8 -1 15 3 15 5 0 11 -7 15
-15z m-1827 -10 c0 -8 -6 -15 -14 -15 -14 0 -17 12 -6 23 11 11 20 8 20 -8z
m385 -7 c-9 -9 -15 -9 -24 0 -9 9 -7 12 12 12 19 0 21 -3 12 -12z m-372 -39
c0 -5 -6 -9 -14 -9 -8 0 -17 -10 -19 -22 -3 -18 -5 -16 -6 7 -1 24 3 31 19 32
11 1 20 -2 20 -8z m1960 -9 c0 -5 -5 -10 -11 -10 -5 0 -7 5 -4 10 3 6 8 10 11
10 2 0 4 -4 4 -10z m-294 -47 c-4 -31 -26 -45 -26 -16 0 16 17 43 26 43 2 0 1
-12 0 -27z m104 -5 c0 -19 -16 -5 -17 14 -2 18 0 20 7 8 5 -8 10 -18 10 -22z
m60 -18 c0 -5 -2 -10 -4 -10 -3 0 -8 5 -11 10 -3 6 -1 10 4 10 6 0 11 -4 11
-10z m-120 -20 c0 -5 -9 -14 -20 -20 -16 -8 -20 -8 -20 4 0 10 6 13 15 10 8
-4 15 -1 15 5 0 6 2 11 5 11 3 0 5 -4 5 -10z m117 -16 c-3 -3 -12 -4 -19 -1
-8 3 -5 6 6 6 11 1 17 -2 13 -5z m-47 -18 c0 -2 -7 -7 -16 -10 -8 -3 -12 -2
-9 4 6 10 25 14 25 6z m-2075 -16 c-3 -5 -12 -10 -18 -10 -7 0 -6 4 3 10 19
12 23 12 15 0z m1432 4 c-3 -3 -12 -4 -19 -1 -8 3 -5 6 6 6 11 1 17 -2 13 -5z
m-1650 -61 c-3 -10 -5 -2 -5 17 0 19 2 27 5 18 2 -10 2 -26 0 -35z m-322 27
c3 -5 1 -10 -4 -10 -6 0 -11 5 -11 10 0 6 2 10 4 10 3 0 8 -4 11 -10z m602
-32 c-3 -8 -6 -5 -6 6 -1 11 2 17 5 13 3 -3 4 -12 1 -19z m-477 -53 c0 -8 -4
-15 -10 -15 -5 0 -7 7 -4 15 4 8 8 15 10 15 2 0 4 -7 4 -15z m175 -60 c0 -26
-4 -35 -17 -35 -12 0 -15 5 -11 17 5 11 3 14 -6 8 -8 -4 -7 2 3 17 9 14 13 28
9 32 -4 4 -1 5 7 1 9 -3 15 -19 15 -40z m-69 8 c-7 -7 -26 7 -26 19 0 6 6 6
15 -2 9 -7 13 -15 11 -17z m-11 -23 c3 -5 1 -10 -4 -10 -6 0 -11 5 -11 10 0 6
2 10 4 10 3 0 8 -4 11 -10z m1366 -27 c13 -16 12 -17 -3 -4 -10 7 -18 15 -18
17 0 8 8 3 21 -13z m19 -149 c0 -2 -7 -4 -15 -4 -8 0 -15 4 -15 10 0 5 7 7 15
4 8 -4 15 -8 15 -10z m-1050 -34 c0 -5 -7 -10 -16 -10 -8 0 -12 5 -9 10 3 6
10 10 16 10 5 0 9 -4 9 -10z m-135 -18 c-3 -3 -11 0 -18 7 -9 10 -8 11 6 5 10
-3 15 -9 12 -12z m62 2 c-3 -3 -12 -4 -19 -1 -8 3 -5 6 6 6 11 1 17 -2 13 -5z
m-11 -39 c-8 -8 -18 -15 -22 -15 -3 0 -1 7 6 15 7 8 17 15 22 15 5 0 3 -7 -6
-15z m-43 -2 c-7 -2 -21 -2 -30 0 -10 3 -4 5 12 5 17 0 24 -2 18 -5z m-203
-53 c0 -5 -4 -10 -9 -10 -6 0 -13 5 -16 10 -3 6 1 10 9 10 9 0 16 -4 16 -10z"/>
<path d="M2210 3920 c0 -5 5 -10 10 -10 6 0 10 5 10 10 0 6 -4 10 -10 10 -5 0
-10 -4 -10 -10z"/>
<path d="M3060 3490 c0 -5 5 -10 10 -10 6 0 10 5 10 10 0 6 -4 10 -10 10 -5 0
-10 -4 -10 -10z"/>
<path d="M5490 2340 c0 -5 5 -10 10 -10 6 0 10 5 10 10 0 6 -4 10 -10 10 -5 0
-10 -4 -10 -10z"/>
<path d="M5350 2190 c0 -5 5 -10 10 -10 6 0 10 5 10 10 0 6 -4 10 -10 10 -5 0
-10 -4 -10 -10z"/>
<path d="M4965 2160 c-3 -5 -1 -10 4 -10 6 0 11 5 11 10 0 6 -2 10 -4 10 -3 0
-8 -4 -11 -10z"/>
<path d="M5230 2100 c0 -5 5 -10 11 -10 5 0 7 5 4 10 -3 6 -8 10 -11 10 -2 0
-4 -4 -4 -10z"/>
<path d="M3220 5089 c0 -5 5 -7 10 -4 6 3 10 8 10 11 0 2 -4 4 -10 4 -5 0 -10
-5 -10 -11z"/>
<path d="M4370 5090 c0 -5 5 -10 10 -10 6 0 10 5 10 10 0 6 -4 10 -10 10 -5 0
-10 -4 -10 -10z"/>
<path d="M3195 5059 c-8 -12 11 -29 33 -29 19 0 10 34 -10 38 -9 2 -19 -2 -23
-9z"/>
<path d="M4580 5059 c0 -5 5 -7 10 -4 6 3 10 8 10 11 0 2 -4 4 -10 4 -5 0 -10
-5 -10 -11z"/>
<path d="M3520 5040 c0 -5 5 -10 10 -10 6 0 10 5 10 10 0 6 -4 10 -10 10 -5 0
-10 -4 -10 -10z"/>
<path d="M5090 5010 c0 -5 4 -10 9 -10 6 0 13 5 16 10 3 6 -1 10 -9 10 -9 0
-16 -4 -16 -10z"/>
<path d="M3760 4940 c0 -11 5 -20 10 -20 6 0 10 9 10 20 0 11 -4 20 -10 20 -5
0 -10 -9 -10 -20z"/>
<path d="M2785 4930 c-4 -6 -4 -10 -1 -10 2 0 11 -3 20 -6 9 -3 16 -2 16 4 0
14 -28 23 -35 12z"/>
<path d="M2830 4930 c0 -5 7 -10 15 -10 8 0 15 5 15 10 0 6 -7 10 -15 10 -8 0
-15 -4 -15 -10z"/>
<path d="M2715 4920 c-3 -5 -1 -10 4 -10 6 0 11 5 11 10 0 6 -2 10 -4 10 -3 0
-8 -4 -11 -10z"/>
<path d="M2730 4895 c-10 -13 -9 -15 9 -15 12 0 21 6 21 15 0 8 -4 15 -9 15
-5 0 -14 -7 -21 -15z"/>
<path d="M5470 4819 c0 -5 5 -7 10 -4 6 3 10 8 10 11 0 2 -4 4 -10 4 -5 0 -10
-5 -10 -11z"/>
<path d="M5760 4681 c0 -12 29 -35 36 -28 11 10 -5 37 -21 37 -8 0 -15 -4 -15
-9z"/>
<path d="M5925 4610 c-3 -5 1 -10 10 -10 9 0 13 5 10 10 -3 6 -8 10 -10 10 -2
0 -7 -4 -10 -10z"/>
<path d="M4080 4510 c0 -5 7 -10 15 -10 8 0 15 5 15 10 0 6 -7 10 -15 10 -8 0
-15 -4 -15 -10z"/>
<path d="M3850 4494 c0 -13 18 -39 24 -34 2 3 -2 14 -10 24 -8 11 -14 16 -14
10z"/>
<path d="M1940 4425 c0 -16 6 -25 15 -25 8 0 15 4 15 9 0 5 3 16 6 25 4 12 0
16 -15 16 -16 0 -21 -6 -21 -25z"/>
<path d="M1900 4345 c-6 -8 -9 -18 -6 -23 8 -13 56 -22 56 -11 0 5 -4 9 -10 9
-5 0 -10 6 -10 14 0 22 -16 28 -30 11z"/>
<path d="M6130 4310 c0 -5 6 -10 14 -10 8 0 18 5 21 10 3 6 -3 10 -14 10 -12
0 -21 -4 -21 -10z"/>
<path d="M1892 4293 c-10 -4 -10 -8 -1 -19 9 -11 7 -14 -10 -14 -12 0 -21 -6
-21 -15 0 -10 10 -15 31 -15 26 0 31 3 26 20 -3 11 -1 20 4 20 5 0 9 7 9 15 0
15 -14 18 -38 8z"/>
<path d="M4070 4260 c0 -5 5 -10 10 -10 6 0 10 5 10 10 0 6 -4 10 -10 10 -5 0
-10 -4 -10 -10z"/>
<path d="M1930 4190 c0 -5 4 -10 9 -10 6 0 13 5 16 10 3 6 -1 10 -9 10 -9 0
-16 -4 -16 -10z"/>
<path d="M1910 4140 c0 -5 5 -10 10 -10 6 0 10 5 10 10 0 6 -4 10 -10 10 -5 0
-10 -4 -10 -10z"/>
<path d="M6330 4055 c0 -8 5 -15 10 -15 6 0 10 7 10 15 0 8 -4 15 -10 15 -5 0
-10 -7 -10 -15z"/>
<path d="M1935 4050 c-3 -5 -3 -14 0 -20 10 -17 32 -11 38 10 4 15 0 20 -13
20 -11 0 -22 -4 -25 -10z"/>
<path d="M6390 3976 c0 -10 9 -16 21 -16 24 0 21 23 -4 28 -10 2 -17 -3 -17
-12z"/>
<path d="M6060 3970 c0 -5 7 -10 15 -10 8 0 15 5 15 10 0 6 -7 10 -15 10 -8 0
-15 -4 -15 -10z"/>
<path d="M1585 3962 c-14 -14 -2 -32 20 -32 16 0 25 -6 25 -16 0 -10 -6 -14
-15 -11 -8 4 -17 2 -20 -3 -4 -6 -1 -10 4 -10 6 0 11 -5 11 -10 0 -6 -12 -3
-27 7 -16 9 -25 13 -20 8 4 -4 0 -19 -8 -32 -25 -38 15 -84 44 -50 8 10 7 17
-1 25 -9 9 -8 12 5 12 31 0 102 50 82 57 -30 10 -40 22 -27 35 6 6 12 16 12
20 0 8 -76 8 -85 0z"/>
<path d="M1742 3958 c-19 -19 -14 -28 12 -28 29 0 44 19 25 31 -18 12 -23 11
-37 -3z"/>
<path d="M6340 3941 c0 -13 20 -18 47 -13 36 7 27 22 -12 22 -19 0 -35 -4 -35
-9z"/>
<path d="M1707 3924 c-13 -13 -7 -24 14 -24 11 0 19 5 17 12 -5 14 -22 21 -31
12z"/>
<path d="M6330 3895 c0 -20 5 -25 25 -25 29 0 36 34 9 44 -27 10 -34 7 -34
-19z"/>
<path d="M1687 3884 c-11 -11 3 -24 24 -24 12 0 19 5 17 13 -5 14 -31 21 -41
11z"/>
<path d="M1652 3808 c6 -18 28 -21 28 -4 0 9 -7 16 -16 16 -9 0 -14 -5 -12
-12z"/>
<path d="M3880 3771 c0 -28 19 -36 38 -17 15 15 15 18 2 26 -24 15 -40 12 -40
-9z"/>
<path d="M3950 3730 c0 -5 5 -10 10 -10 6 0 10 5 10 10 0 6 -4 10 -10 10 -5 0
-10 -4 -10 -10z"/>
<path d="M3880 3690 c0 -5 5 -10 10 -10 6 0 10 5 10 10 0 6 -4 10 -10 10 -5 0
-10 -4 -10 -10z"/>
<path d="M6165 3660 c-3 -5 -1 -10 4 -10 6 0 11 5 11 10 0 6 -2 10 -4 10 -3 0
-8 -4 -11 -10z"/>
<path d="M2500 3520 c0 -5 5 -10 10 -10 6 0 10 5 10 10 0 6 -4 10 -10 10 -5 0
-10 -4 -10 -10z"/>
<path d="M2163 3498 c2 -7 12 -13 22 -13 10 0 20 6 23 13 2 7 -6 12 -23 12
-17 0 -25 -5 -22 -12z"/>
<path d="M1940 3485 c0 -8 7 -15 15 -15 8 0 15 7 15 15 0 8 -7 15 -15 15 -8 0
-15 -7 -15 -15z"/>
<path d="M2782 3488 c6 -18 28 -21 28 -4 0 9 -7 16 -16 16 -9 0 -14 -5 -12
-12z"/>
<path d="M4935 3490 c-8 -12 8 -19 55 -22 26 -2 35 1 35 12 0 18 -79 27 -90
10z"/>
<path d="M5118 3493 c-18 -5 -23 -15 -12 -26 7 -7 44 14 44 25 0 8 -4 9 -32 1z"/>
<path d="M2466 3465 c5 -19 2 -25 -10 -25 -9 0 -16 -5 -16 -11 0 -7 9 -9 23
-5 12 3 32 6 45 6 18 0 22 6 22 30 0 33 -3 35 -31 20 -13 -7 -19 -7 -19 0 0 5
-5 10 -10 10 -6 0 -8 -11 -4 -25z"/>
<path d="M5160 3480 c0 -5 7 -10 15 -10 8 0 15 5 15 10 0 6 -7 10 -15 10 -8 0
-15 -4 -15 -10z"/>
<path d="M2218 3473 c-19 -5 -24 -18 -10 -27 4 -2 24 -7 45 -11 40 -8 49 4 23
31 -15 14 -26 16 -58 7z"/>
<path d="M2845 3470 c3 -5 10 -10 16 -10 5 0 9 5 9 10 0 6 -7 10 -16 10 -8 0
-12 -4 -9 -10z"/>
<path d="M2410 3460 c0 -5 5 -10 10 -10 6 0 10 5 10 10 0 6 -4 10 -10 10 -5 0
-10 -4 -10 -10z"/>
<path d="M2546 3461 c-3 -5 1 -22 9 -37 11 -22 12 -30 2 -33 -26 -9 -36 -41
-11 -41 8 0 12 5 9 10 -10 16 4 11 26 -9 16 -15 19 -24 11 -37 -14 -24 16 -75
43 -72 12 2 20 11 20 23 0 16 -6 20 -27 18 -16 -1 -28 2 -28 8 0 5 9 9 20 9
17 0 19 4 14 28 -4 15 -14 38 -23 51 -12 18 -13 25 -3 29 18 6 4 22 -19 22
-12 0 -19 7 -19 20 0 21 -14 27 -24 11z m51 -86 c0 -8 -4 -12 -9 -9 -4 3 -8 9
-8 15 0 5 4 9 8 9 5 0 9 -7 9 -15z"/>
<path d="M2870 3440 c-17 -22 -29 -29 -43 -24 -16 5 -18 2 -12 -16 5 -16 0
-27 -19 -44 -28 -23 -26 -36 6 -36 11 0 18 7 18 20 0 11 5 20 11 20 7 0 18 8
26 18 13 16 14 15 10 -5 -4 -20 -1 -23 25 -23 24 0 29 3 24 18 -4 9 4 4 17
-12 14 -17 26 -25 30 -19 4 6 0 16 -8 23 -8 7 -15 21 -15 31 0 11 -4 19 -10
19 -5 0 -10 7 -10 15 0 8 7 15 15 15 14 0 19 -11 16 -38 -1 -7 5 -15 14 -18 8
-3 15 -10 15 -16 0 -5 7 -16 15 -25 13 -12 18 -13 31 -2 14 12 14 15 -6 31
-13 10 -17 18 -9 18 10 0 10 3 2 11 -6 6 -9 18 -6 27 5 12 1 14 -15 9 -13 -3
-28 0 -35 7 -7 7 -24 16 -38 19 -21 5 -31 1 -49 -23z"/>
<path d="M2330 3435 c0 -18 5 -25 20 -25 23 0 25 8 6 33 -18 24 -26 21 -26 -8z"/>
<path d="M2810 3450 c0 -5 5 -10 10 -10 6 0 10 5 10 10 0 6 -4 10 -10 10 -5 0
-10 -4 -10 -10z"/>
<path d="M4947 3453 c-12 -11 -8 -23 8 -23 8 0 15 7 15 15 0 16 -12 20 -23 8z"/>
<path d="M5077 3453 c-11 -11 -8 -23 7 -23 9 0 12 -10 9 -35 -3 -26 0 -35 12
-35 8 0 15 -7 15 -16 0 -8 4 -13 9 -9 5 3 7 21 4 40 -4 26 -2 36 11 41 18 7
19 13 6 34 -8 13 -11 12 -25 -5 -9 -11 -14 -15 -11 -9 3 7 -1 15 -10 18 -19 7
-19 7 -27 -1z"/>
<path d="M2020 3440 c0 -5 5 -10 10 -10 6 0 10 5 10 10 0 6 -4 10 -10 10 -5 0
-10 -4 -10 -10z"/>
<path d="M2390 3430 c0 -5 5 -10 10 -10 6 0 10 5 10 10 0 6 -4 10 -10 10 -5 0
-10 -4 -10 -10z"/>
<path d="M2770 3420 c0 -5 7 -10 16 -10 8 0 12 5 9 10 -3 6 -10 10 -16 10 -5
0 -9 -4 -9 -10z"/>
<path d="M3040 3420 c0 -5 5 -10 10 -10 6 0 10 5 10 10 0 6 -4 10 -10 10 -5 0
-10 -4 -10 -10z"/>
<path d="M5274 3418 c-7 -11 15 -29 30 -25 6 2 11 8 13 14 5 14 -35 24 -43 11z"/>
<path d="M2405 3410 c-9 -15 4 -30 25 -30 24 0 36 20 19 31 -19 12 -36 11 -44
-1z"/>
<path d="M2640 3391 c0 -15 6 -21 21 -21 14 0 19 5 17 17 -5 26 -38 29 -38 4z"/>
<path d="M5446 3401 c-4 -7 -5 -15 -2 -18 9 -9 19 4 14 18 -4 11 -6 11 -12 0z"/>
<path d="M2500 3390 c0 -5 5 -10 11 -10 5 0 7 5 4 10 -3 6 -8 10 -11 10 -2 0
-4 -4 -4 -10z"/>
<path d="M5622 3388 c5 -15 48 -24 48 -10 0 10 -23 22 -42 22 -5 0 -8 -6 -6
-12z"/>
<path d="M5415 3360 c-3 -5 1 -10 9 -10 9 0 16 5 16 10 0 6 -4 10 -9 10 -6 0
-13 -4 -16 -10z"/>
<path d="M2500 3350 c0 -5 5 -10 10 -10 6 0 10 5 10 10 0 6 -4 10 -10 10 -5 0
-10 -4 -10 -10z"/>
<path d="M5154 3346 c-9 -24 12 -44 28 -28 10 10 8 16 -5 29 -15 15 -17 15
-23 -1z"/>
<path d="M4565 3330 c-11 -4 -30 -11 -43 -15 -13 -4 -21 -13 -19 -19 5 -14 49
-10 62 7 6 6 16 12 23 12 13 0 18 19 5 21 -4 1 -17 -1 -28 -6z"/>
<path d="M2517 3323 c-9 -9 -9 -43 1 -43 4 0 17 -3 30 -6 16 -5 22 -2 22 11 0
29 -36 55 -53 38z"/>
<path d="M2955 3310 c4 -6 11 -8 16 -5 14 9 11 15 -7 15 -8 0 -12 -5 -9 -10z"/>
<path d="M2890 3291 c0 -17 18 -31 41 -31 5 0 9 11 9 25 0 20 -5 25 -25 25
-18 0 -25 -5 -25 -19z"/>
<path d="M2990 3301 c0 -5 -9 -11 -20 -14 -24 -6 -26 -32 -4 -41 11 -4 18 1
21 14 3 11 9 20 14 20 5 0 9 7 9 15 0 8 -4 15 -10 15 -5 0 -10 -4 -10 -9z"/>
<path d="M3130 3290 c0 -5 7 -10 15 -10 8 0 15 5 15 10 0 6 -7 10 -15 10 -8 0
-15 -4 -15 -10z"/>
<path d="M2453 3274 c-10 -26 14 -41 35 -21 15 16 15 19 2 27 -21 14 -30 12
-37 -6z"/>
<path d="M3163 3274 c-7 -19 4 -31 40 -39 17 -5 27 -3 27 4 0 6 -7 11 -17 11
-9 0 -13 3 -10 7 8 7 -11 33 -25 33 -5 0 -11 -7 -15 -16z"/>
<path d="M3000 3260 c0 -5 5 -10 10 -10 6 0 10 5 10 10 0 6 -4 10 -10 10 -5 0
-10 -4 -10 -10z"/>
<path d="M3040 3265 c0 -4 7 -13 16 -20 15 -10 15 -13 -1 -29 -11 -10 -25 -14
-37 -10 -16 5 -19 2 -16 -17 3 -26 38 -40 38 -16 0 8 7 17 15 21 29 11 17 -34
-12 -46 -21 -8 -24 -12 -11 -15 10 -3 15 -10 11 -19 -3 -8 -2 -14 2 -14 10 0
35 27 35 39 0 6 5 11 11 11 6 0 9 9 6 20 -3 11 -1 20 4 20 15 0 10 40 -6 46
-8 4 -12 10 -9 15 3 5 1 9 -5 9 -5 0 -16 3 -25 6 -9 3 -16 3 -16 -1z"/>
<path d="M5610 3259 c0 -19 28 -39 54 -39 14 0 26 -5 26 -12 0 -6 2 -9 5 -7 2
3 2 15 -2 27 -3 15 -13 22 -29 22 -13 0 -24 5 -24 10 0 6 -7 10 -15 10 -8 0
-15 -5 -15 -11z"/>
<path d="M5885 3260 c3 -5 10 -10 16 -10 5 0 9 5 9 10 0 6 -7 10 -16 10 -8 0
-12 -4 -9 -10z"/>
<path d="M6013 3246 c12 -26 41 -35 53 -15 8 14 -5 26 -38 34 -26 7 -27 6 -15
-19z"/>
<path d="M4510 3244 c0 -9 31 -37 36 -32 9 9 -8 38 -22 38 -8 0 -14 -3 -14 -6z"/>
<path d="M2500 3230 c0 -5 5 -10 10 -10 6 0 10 5 10 10 0 6 -4 10 -10 10 -5 0
-10 -4 -10 -10z"/>
<path d="M3005 3230 c3 -5 8 -10 11 -10 2 0 4 5 4 10 0 6 -5 10 -11 10 -5 0
-7 -4 -4 -10z"/>
<path d="M2880 3216 c0 -9 5 -16 10 -16 6 0 21 -11 34 -25 15 -16 30 -23 40
-19 22 9 20 34 -3 34 -12 0 -18 7 -17 18 1 12 -8 18 -31 20 -25 2 -33 -1 -33
-12z"/>
<path d="M2812 3203 c2 -10 13 -19 26 -21 17 -3 22 2 22 17 0 16 -6 21 -26 21
-19 0 -25 -5 -22 -17z"/>
<path d="M6060 3210 c0 -5 7 -10 15 -10 8 0 15 5 15 10 0 6 -7 10 -15 10 -8 0
-15 -4 -15 -10z"/>
<path d="M2475 3201 c-3 -5 -1 -12 5 -16 5 -3 10 1 10 9 0 18 -6 21 -15 7z"/>
<path d="M3237 3195 c-9 -8 -20 -15 -26 -15 -6 0 -11 -4 -11 -9 0 -5 16 -9 36
-9 20 0 40 -6 45 -13 13 -21 19 -6 10 27 -9 33 -32 42 -54 19z"/>
<path d="M5812 3196 c-5 -6 -12 -26 -16 -45 -5 -27 -3 -32 10 -27 8 3 13 2 10
-3 -3 -4 5 -19 17 -31 17 -19 18 -22 4 -17 -13 5 -20 0 -28 -20 -7 -20 -7 -29
1 -31 5 -2 17 -11 26 -19 8 -8 16 -14 18 -12 32 43 47 73 42 84 -3 8 -1 17 4
20 17 10 11 43 -7 48 -17 4 -17 5 0 6 17 1 25 31 8 31 -5 0 -14 -7 -21 -15 -7
-8 -20 -15 -29 -14 -11 0 -10 3 7 11 29 15 28 21 -8 35 -22 8 -32 8 -38 -1z"/>
<path d="M5964 3195 c-8 -21 14 -45 41 -45 26 0 42 39 22 52 -20 13 -57 9 -63
-7z"/>
<path d="M2520 3190 c0 -5 5 -10 10 -10 6 0 10 5 10 10 0 6 -4 10 -10 10 -5 0
-10 -4 -10 -10z"/>
<path d="M2580 3180 c0 -5 11 -10 25 -10 14 0 25 5 25 10 0 6 -11 10 -25 10
-14 0 -25 -4 -25 -10z"/>
<path d="M5530 3180 c0 -5 5 -10 10 -10 6 0 10 5 10 10 0 6 -4 10 -10 10 -5 0
-10 -4 -10 -10z"/>
<path d="M6058 3183 c-17 -4 -26 -33 -10 -33 10 1 42 26 42 34 0 6 -5 6 -32
-1z"/>
<path d="M2600 3120 c-17 -11 -13 -15 23 -24 30 -7 34 -2 13 20 -17 16 -17 16
-36 4z"/>
<path d="M3420 3120 c0 -5 9 -10 21 -10 11 0 17 5 14 10 -3 6 -13 10 -21 10
-8 0 -14 -4 -14 -10z"/>
<path d="M2694 3095 c-5 -13 -9 -13 -22 -3 -12 10 -14 10 -8 1 4 -8 2 -14 -6
-15 -7 0 -17 -2 -23 -3 -5 -2 -14 -3 -20 -4 -5 -1 -2 -8 9 -16 11 -8 30 -12
47 -8 18 3 29 1 29 -6 0 -6 9 -11 20 -11 11 0 20 -5 20 -11 0 -5 4 -8 10 -4 6
4 6 15 0 31 -6 14 -7 30 -4 36 7 11 -13 28 -34 28 -7 0 -15 -7 -18 -15z"/>
<path d="M2830 3095 c0 -9 5 -15 11 -13 6 2 11 8 11 13 0 5 -5 11 -11 13 -6 2
-11 -4 -11 -13z"/>
<path d="M6000 3102 c-20 -9 -24 -32 -4 -32 8 0 13 -4 9 -9 -3 -5 -1 -12 5
-16 17 -11 11 -43 -10 -50 -11 -3 -20 -11 -20 -16 0 -6 9 -7 20 -4 11 4 20 2
20 -4 0 -6 -4 -11 -10 -11 -5 0 -10 -4 -10 -10 0 -5 7 -10 15 -10 8 0 15 5 15
10 0 6 7 10 15 10 8 0 15 4 15 10 0 5 7 7 15 4 10 -4 15 0 15 15 0 12 -4 21
-10 21 -21 0 -51 41 -45 61 5 15 10 17 25 9 13 -7 21 -7 26 1 14 23 -48 38
-86 21z"/>
<path d="M2772 3091 c4 -13 18 -16 19 -4 0 4 -5 9 -11 12 -7 2 -11 -2 -8 -8z"/>
<path d="M6222 3088 c-19 -19 -14 -42 11 -57 12 -7 19 -10 14 -6 -4 5 0 17 9
27 14 14 14 20 4 33 -15 18 -22 19 -38 3z"/>
<path d="M5441 3066 c-11 -13 -11 -20 -3 -28 15 -15 24 -5 20 23 -3 21 -4 21
-17 5z"/>
<path d="M2873 3033 c-4 -9 -1 -19 5 -21 7 -2 12 -15 12 -28 0 -14 6 -24 14
-24 8 0 21 -2 29 -5 10 -4 14 3 14 26 0 19 6 35 16 41 25 13 21 28 -8 28 -18
0 -23 -4 -19 -15 4 -10 0 -15 -15 -15 -12 0 -21 6 -21 15 0 20 -19 19 -27 -2z"/>
<path d="M2615 3020 c3 -5 10 -10 16 -10 5 0 9 5 9 10 0 6 -7 10 -16 10 -8 0
-12 -4 -9 -10z"/>
<path d="M2770 3020 c0 -5 4 -10 9 -10 6 0 13 5 16 10 3 6 -1 10 -9 10 -9 0
-16 -4 -16 -10z"/>
<path d="M3190 3011 c0 -12 29 -23 41 -15 18 10 9 24 -16 24 -14 0 -25 -4 -25
-9z"/>
<path d="M3250 3010 c0 -5 11 -10 25 -10 14 0 25 5 25 10 0 6 -11 10 -25 10
-14 0 -25 -4 -25 -10z"/>
<path d="M3400 3010 c0 -5 5 -10 10 -10 6 0 10 5 10 10 0 6 -4 10 -10 10 -5 0
-10 -4 -10 -10z"/>
<path d="M2986 2984 c-9 -22 -8 -24 9 -24 8 0 15 9 15 20 0 24 -15 27 -24 4z"/>
<path d="M5831 2971 c-18 -11 -5 -31 20 -31 12 0 19 7 19 20 0 21 -16 26 -39
11z"/>
<path d="M3247 2963 c-14 -13 -6 -33 13 -33 13 0 20 7 20 20 0 19 -20 27 -33
13z"/>
<path d="M6140 2949 c0 -16 4 -19 23 -13 31 9 34 14 17 24 -24 16 -40 11 -40
-11z"/>
<path d="M5643 2953 c-22 -8 -14 -23 12 -23 16 0 25 6 25 15 0 15 -14 18 -37
8z"/>
<path d="M5250 2940 c0 -5 5 -10 10 -10 6 0 10 5 10 10 0 6 -4 10 -10 10 -5 0
-10 -4 -10 -10z"/>
<path d="M3290 2930 c0 -5 11 -10 25 -10 14 0 25 5 25 10 0 6 -11 10 -25 10
-14 0 -25 -4 -25 -10z"/>
<path d="M5688 2927 c-16 -6 -28 -17 -28 -24 0 -18 32 -53 49 -53 11 0 11 3
-2 18 -20 22 -24 50 -4 35 31 -25 62 -2 35 25 -14 14 -13 14 -50 -1z"/>
<path d="M3840 2920 c0 -5 7 -10 15 -10 8 0 15 5 15 10 0 6 -7 10 -15 10 -8 0
-15 -4 -15 -10z"/>
<path d="M5757 2890 c-16 -19 -23 -40 -12 -40 3 0 14 6 25 13 17 10 22 9 29
-2 5 -8 14 -10 21 -6 10 6 9 11 -5 22 -11 7 -15 13 -9 13 9 0 -16 20 -26 20
-3 0 -13 -9 -23 -20z"/>
<path d="M5606 2864 c-8 -21 -1 -28 19 -20 9 3 15 11 13 18 -7 19 -25 20 -32
2z"/>
<path d="M2820 2845 c0 -11 7 -15 23 -13 12 2 22 8 22 13 0 6 -10 11 -22 13
-16 2 -23 -2 -23 -13z"/>
<path d="M4630 2850 c0 -5 5 -10 11 -10 5 0 7 5 4 10 -3 6 -8 10 -11 10 -2 0
-4 -4 -4 -10z"/>
<path d="M5641 2827 c-10 -16 -10 -22 1 -34 16 -15 48 -8 48 11 0 6 -8 19 -18
27 -17 15 -20 15 -31 -4z"/>
<path d="M2716 2821 c-4 -5 -2 -12 3 -15 5 -4 12 -2 15 3 4 5 2 12 -3 15 -5 4
-12 2 -15 -3z"/>
<path d="M5577 2814 c-4 -4 -7 -18 -7 -31 0 -28 23 -27 28 1 4 20 -11 40 -21
30z"/>
<path d="M5850 2805 c0 -8 5 -15 10 -15 6 0 10 7 10 15 0 8 -4 15 -10 15 -5 0
-10 -7 -10 -15z"/>
<path d="M2757 2783 c-12 -11 -7 -43 6 -43 24 0 37 21 22 36 -15 16 -19 17
-28 7z"/>
<path d="M2870 2770 c0 -5 5 -10 10 -10 6 0 10 5 10 10 0 6 -4 10 -10 10 -5 0
-10 -4 -10 -10z"/>
<path d="M2360 2760 c0 -5 7 -10 15 -10 8 0 15 5 15 10 0 6 -7 10 -15 10 -8 0
-15 -4 -15 -10z"/>
<path d="M2640 2760 c0 -5 5 -10 10 -10 6 0 10 5 10 10 0 6 -4 10 -10 10 -5 0
-10 -4 -10 -10z"/>
<path d="M2710 2760 c-8 -5 -11 -12 -7 -16 4 -4 13 -2 19 4 15 15 7 24 -12 12z"/>
<path d="M4682 2753 c2 -13 11 -17 28 -15 30 5 34 8 25 21 -3 6 -17 11 -31 11
-19 0 -25 -5 -22 -17z"/>
<path d="M2655 2729 c-9 -13 13 -30 35 -26 8 1 15 9 15 17 0 18 -40 26 -50 9z"/>
<path d="M2570 2705 c0 -18 4 -23 15 -19 8 4 15 15 15 25 0 10 -7 19 -15 19
-9 0 -15 -9 -15 -25z"/>
<path d="M2620 2720 c0 -5 5 -10 10 -10 6 0 10 5 10 10 0 6 -4 10 -10 10 -5 0
-10 -4 -10 -10z"/>
<path d="M6030 2710 c0 -5 5 -10 10 -10 6 0 10 5 10 10 0 6 -4 10 -10 10 -5 0
-10 -4 -10 -10z"/>
<path d="M6363 2713 c-23 -9 -14 -31 15 -36 15 -3 37 -8 49 -12 27 -9 53 30
33 49 -9 8 -14 8 -17 -1 -6 -15 -43 -17 -43 -3 0 10 -16 12 -37 3z"/>
<path d="M5302 2693 c5 -25 28 -28 28 -4 0 12 -6 21 -16 21 -9 0 -14 -7 -12
-17z"/>
<path d="M2530 2690 c0 -5 5 -10 10 -10 6 0 10 5 10 10 0 6 -4 10 -10 10 -5 0
-10 -4 -10 -10z"/>
<path d="M5400 2680 c-8 -5 -12 -12 -9 -15 8 -8 39 5 39 16 0 11 -11 11 -30
-1z"/>
<path d="M5450 2680 c0 -5 7 -10 15 -10 8 0 15 5 15 10 0 6 -7 10 -15 10 -8 0
-15 -4 -15 -10z"/>
<path d="M6220 2680 c0 -5 5 -10 10 -10 6 0 10 5 10 10 0 6 -4 10 -10 10 -5 0
-10 -4 -10 -10z"/>
<path d="M2750 2670 c0 -5 7 -10 16 -10 8 0 12 5 9 10 -3 6 -10 10 -16 10 -5
0 -9 -4 -9 -10z"/>
<path d="M3060 2670 c0 -5 5 -10 10 -10 6 0 10 5 10 10 0 6 -4 10 -10 10 -5 0
-10 -4 -10 -10z"/>
<path d="M2810 2655 c0 -8 5 -15 10 -15 6 0 10 7 10 15 0 8 -4 15 -10 15 -5 0
-10 -7 -10 -15z"/>
<path d="M2880 2646 c0 -20 16 -29 40 -21 32 10 25 35 -10 35 -19 0 -30 -5
-30 -14z"/>
<path d="M6390 2650 c0 -5 9 -10 21 -10 11 0 17 5 14 10 -3 6 -13 10 -21 10
-8 0 -14 -4 -14 -10z"/>
<path d="M3000 2640 c0 -5 7 -10 16 -10 8 0 12 5 9 10 -3 6 -10 10 -16 10 -5
0 -9 -4 -9 -10z"/>
<path d="M3050 2640 c0 -5 5 -10 10 -10 6 0 10 5 10 10 0 6 -4 10 -10 10 -5 0
-10 -4 -10 -10z"/>
<path d="M6542 2638 c-21 -21 -13 -38 18 -38 25 0 30 4 30 25 0 27 -26 35 -48
13z"/>
<path d="M1760 2615 c0 -8 9 -15 20 -15 24 0 27 15 4 24 -22 9 -24 8 -24 -9z"/>
<path d="M2855 2609 c-4 -6 -5 -12 -2 -15 7 -7 37 7 37 17 0 13 -27 11 -35 -2z"/>
<path d="M6392 2585 c3 -14 0 -25 -6 -26 -6 0 -2 -4 9 -8 39 -16 62 29 26 49
-29 15 -34 13 -29 -15z"/>
<path d="M1763 2554 c-7 -18 17 -38 31 -24 11 11 1 40 -14 40 -6 0 -13 -7 -17
-16z"/>
<path d="M4180 2530 c-8 -5 -12 -12 -9 -15 8 -8 39 5 39 16 0 11 -11 11 -30
-1z"/>
<path d="M6411 2531 c-45 -12 -33 -40 13 -32 5 1 13 -4 17 -11 4 -7 11 -9 15
-6 3 4 -1 14 -10 23 -18 18 -21 30 -7 20 5 -3 12 -1 16 5 7 11 -7 12 -44 1z"/>
<path d="M4230 2520 c0 -5 5 -10 10 -10 6 0 10 5 10 10 0 6 -4 10 -10 10 -5 0
-10 -4 -10 -10z"/>
<path d="M6390 2480 c0 -5 5 -10 10 -10 6 0 10 5 10 10 0 6 -4 10 -10 10 -5 0
-10 -4 -10 -10z"/>
<path d="M6220 2464 c0 -8 5 -12 10 -9 6 3 10 10 10 16 0 5 -4 9 -10 9 -5 0
-10 -7 -10 -16z"/>
<path d="M4090 2455 c0 -8 9 -15 20 -15 11 0 20 7 20 15 0 8 -9 15 -20 15 -11
0 -20 -7 -20 -15z"/>
<path d="M6642 2458 c-16 -16 -15 -28 3 -28 8 0 15 9 15 20 0 23 -2 24 -18 8z"/>
<path d="M6260 2450 c0 -5 5 -10 10 -10 6 0 10 5 10 10 0 6 -4 10 -10 10 -5 0
-10 -4 -10 -10z"/>
<path d="M3715 2440 c3 -5 8 -10 11 -10 2 0 4 5 4 10 0 6 -5 10 -11 10 -5 0
-7 -4 -4 -10z"/>
<path d="M6440 2410 c0 -5 -7 -10 -15 -10 -23 0 -18 -17 8 -24 44 -12 57 -7
57 19 0 20 -5 25 -25 25 -14 0 -25 -4 -25 -10z"/>
<path d="M6370 2390 c0 -11 7 -20 15 -20 17 0 18 2 9 24 -9 23 -24 20 -24 -4z"/>
<path d="M3655 2383 c-3 -10 -1 -19 5 -21 8 -3 7 -8 -1 -18 -9 -11 -7 -14 10
-14 18 0 19 3 11 25 -6 16 -6 25 0 25 6 0 10 5 10 10 0 17 -27 11 -35 -7z"/>
<path d="M1670 2350 c0 -5 5 -10 10 -10 6 0 10 5 10 10 0 6 -4 10 -10 10 -5 0
-10 -4 -10 -10z"/>
<path d="M6397 2353 c-11 -10 -8 -41 4 -48 11 -7 59 31 59 47 0 10 -54 11 -63
1z"/>
<path d="M6300 2335 c-10 -12 -9 -16 3 -21 20 -7 37 3 37 22 0 18 -24 18 -40
-1z"/>
<path d="M6500 2321 c0 -28 24 -45 40 -26 16 20 6 45 -20 45 -13 0 -20 -7 -20
-19z"/>
<path d="M4290 2306 c0 -20 5 -26 21 -26 15 0 20 5 17 22 -5 34 -38 37 -38 4z"/>
<path d="M3964 2299 c-9 -16 12 -33 31 -25 14 5 15 9 5 21 -15 18 -26 19 -36
4z"/>
<path d="M4240 2270 c0 -5 5 -10 10 -10 6 0 10 5 10 10 0 6 -4 10 -10 10 -5 0
-10 -4 -10 -10z"/>
<path d="M4410 2264 c0 -8 5 -12 10 -9 6 3 10 10 10 16 0 5 -4 9 -10 9 -5 0
-10 -7 -10 -16z"/>
<path d="M6540 2269 c0 -5 5 -7 10 -4 6 3 10 8 10 11 0 2 -4 4 -10 4 -5 0 -10
-5 -10 -11z"/>
<path d="M3718 2258 c9 -9 15 -9 24 0 9 9 7 12 -12 12 -19 0 -21 -3 -12 -12z"/>
<path d="M3870 2260 c0 -5 5 -10 10 -10 6 0 10 5 10 10 0 6 -4 10 -10 10 -5 0
-10 -4 -10 -10z"/>
<path d="M1592 2248 c5 -15 37 -18 41 -3 1 6 -9 12 -22 13 -16 3 -22 -1 -19
-10z"/>
<path d="M4030 2252 c0 -4 5 -13 12 -20 9 -9 9 -12 0 -12 -7 0 -12 -4 -12 -10
0 -5 6 -10 13 -10 16 0 40 38 32 50 -7 12 -45 13 -45 2z"/>
<path d="M3727 2232 c-25 -28 -22 -52 7 -52 14 0 28 -4 31 -10 3 -5 11 -10 16
-10 12 0 1 43 -12 48 -5 2 -9 12 -9 23 0 24 -12 24 -33 1z"/>
<path d="M4000 2240 c0 -5 5 -10 10 -10 6 0 10 5 10 10 0 6 -4 10 -10 10 -5 0
-10 -4 -10 -10z"/>
<path d="M4430 2240 c0 -5 4 -10 9 -10 6 0 13 5 16 10 3 6 -1 10 -9 10 -9 0
-16 -4 -16 -10z"/>
<path d="M3570 2225 c0 -8 5 -15 10 -15 6 0 10 7 10 15 0 8 -4 15 -10 15 -5 0
-10 -7 -10 -15z"/>
<path d="M3610 2225 c0 -8 9 -15 20 -15 11 0 20 7 20 15 0 8 -9 15 -20 15 -11
0 -20 -7 -20 -15z"/>
<path d="M3870 2210 c0 -5 9 -10 20 -10 11 0 20 5 20 10 0 6 -9 10 -20 10 -11
0 -20 -4 -20 -10z"/>
<path d="M3990 2210 c0 -5 5 -10 10 -10 6 0 10 5 10 10 0 6 -4 10 -10 10 -5 0
-10 -4 -10 -10z"/>
<path d="M4040 2180 c0 -5 4 -10 10 -10 5 0 7 -7 4 -15 -6 -15 41 -33 54 -21
3 4 -3 9 -15 12 -14 4 -19 11 -16 25 4 14 0 19 -16 19 -11 0 -21 -4 -21 -10z"/>
<path d="M3710 2160 c0 -5 5 -10 10 -10 6 0 10 5 10 10 0 6 -4 10 -10 10 -5 0
-10 -4 -10 -10z"/>
<path d="M6482 2153 c-18 -7 -4 -23 19 -23 12 0 19 5 17 12 -5 14 -18 18 -36
11z"/>
<path d="M6444 2119 c-3 -6 0 -15 7 -20 18 -11 21 -11 39 1 13 9 13 11 0 20
-20 13 -37 13 -46 -1z"/>
<path d="M1560 2100 c0 -5 12 -10 26 -10 14 0 23 4 19 10 -3 6 -15 10 -26 10
-10 0 -19 -4 -19 -10z"/>
<path d="M3690 2100 c0 -5 5 -10 10 -10 6 0 10 5 10 10 0 6 -4 10 -10 10 -5 0
-10 -4 -10 -10z"/>
<path d="M1563 2041 c1 -31 4 -37 19 -33 27 7 32 21 17 48 -20 37 -38 30 -36
-15z"/>
<path d="M6320 2010 c0 -22 20 -26 38 -8 19 19 14 28 -13 28 -18 0 -25 -5 -25
-20z"/>
<path d="M6270 1996 c0 -9 7 -16 16 -16 17 0 14 22 -4 28 -7 2 -12 -3 -12 -12z"/>
<path d="M6170 1960 c0 -5 9 -10 20 -10 11 0 20 -4 20 -9 0 -10 58 -26 67 -18
2 3 0 14 -6 25 -7 14 -22 19 -55 20 -26 1 -46 -2 -46 -8z"/>
<path d="M1610 1900 c0 -5 5 -10 10 -10 6 0 10 5 10 10 0 6 -4 10 -10 10 -5 0
-10 -4 -10 -10z"/>
<path d="M1636 1891 c-9 -14 4 -41 20 -41 8 0 14 10 14 25 0 25 -23 35 -34 16z"/>
<path d="M1691 1851 c-7 -5 -10 -14 -7 -20 4 -6 1 -11 -8 -11 -27 0 -27 -19
-1 -36 24 -16 27 -16 45 1 23 21 27 11 5 -11 -20 -21 -19 -35 4 -41 13 -3 17
-11 14 -24 -6 -23 5 -24 32 -3 19 14 19 15 -9 39 -22 19 -25 25 -12 25 27 0
29 27 5 51 -14 14 -24 18 -27 11 -2 -6 -9 -9 -17 -6 -8 3 -11 12 -8 20 6 16 3
17 -16 5z"/>
<path d="M1780 1760 c0 -5 7 -10 15 -10 8 0 15 5 15 10 0 6 -7 10 -15 10 -8 0
-15 -4 -15 -10z"/>
<path d="M1635 1749 c-4 -6 -4 -13 -1 -16 8 -8 36 5 36 17 0 13 -27 13 -35 -1z"/>
<path d="M1817 1743 c-15 -14 -6 -31 21 -36 34 -7 36 -4 22 22 -11 21 -30 27
-43 14z"/>
<path d="M5917 1683 c7 -19 44 -27 54 -12 14 22 11 26 -25 25 -22 -1 -32 -5
-29 -13z"/>
<path d="M1832 1679 c2 -6 7 -10 11 -10 4 1 16 1 27 1 11 0 20 5 20 10 0 6
-14 10 -31 10 -17 0 -29 -5 -27 -11z"/>
<path d="M5990 1669 c0 -25 33 -22 38 4 2 12 -3 17 -17 17 -15 0 -21 -6 -21
-21z"/>
<path d="M6070 1680 c0 -5 7 -10 15 -10 8 0 15 5 15 10 0 6 -7 10 -15 10 -8 0
-15 -4 -15 -10z"/>
<path d="M5870 1670 c0 -5 7 -10 15 -10 8 0 15 5 15 10 0 6 -7 10 -15 10 -8 0
-15 -4 -15 -10z"/>
<path d="M6025 1650 c-4 -6 -1 -17 5 -25 10 -12 9 -15 -4 -15 -22 0 -33 -30
-15 -41 21 -13 39 -11 39 6 0 8 7 15 15 15 21 0 19 30 -2 31 -12 0 -13 2 -5 6
10 4 10 8 1 19 -14 17 -25 18 -34 4z"/>
<path d="M5858 1632 c-37 -22 -35 -27 12 -27 41 0 44 2 34 29 -8 20 -12 20
-46 -2z"/>
<path d="M1870 1624 c0 -9 5 -14 12 -12 18 6 21 28 4 28 -9 0 -16 -7 -16 -16z"/>
<path d="M6103 1628 c2 -7 12 -13 22 -13 10 0 20 6 23 13 2 7 -6 12 -23 12
-17 0 -25 -5 -22 -12z"/>
<path d="M1936 1581 c-4 -7 -5 -15 -2 -18 9 -9 19 4 14 18 -4 11 -6 11 -12 0z"/>
<path d="M5877 1583 c-12 -12 -7 -33 8 -33 17 0 19 9 7 28 -5 7 -11 9 -15 5z"/>
<path d="M2007 1564 c-4 -4 -4 -10 -1 -15 6 -10 34 0 34 12 0 10 -24 12 -33 3z"/>
<path d="M2068 1541 c8 -4 13 -11 13 -15 -1 -3 1 -6 4 -6 3 0 5 2 5 5 0 3 0
10 0 15 0 6 -8 10 -17 10 -14 0 -15 -2 -5 -9z"/>
<path d="M5807 1534 c-13 -13 -7 -24 14 -24 11 0 19 5 17 12 -5 14 -22 21 -31
12z"/>
<path d="M2293 1516 c-24 -11 -31 -26 -12 -26 11 0 44 29 38 33 -2 2 -14 -2
-26 -7z"/>
<path d="M4000 1520 c0 -5 5 -10 10 -10 6 0 10 5 10 10 0 6 -4 10 -10 10 -5 0
-10 -4 -10 -10z"/>
<path d="M4080 1515 c7 -8 17 -12 22 -9 6 4 5 10 -3 15 -22 14 -33 10 -19 -6z"/>
<path d="M2185 1510 c4 -6 11 -8 16 -5 14 9 11 15 -7 15 -8 0 -12 -5 -9 -10z"/>
<path d="M5860 1485 c0 -8 2 -15 4 -15 2 0 11 -3 20 -6 10 -4 16 -1 16 9 0 8
-7 18 -16 21 -22 9 -24 8 -24 -9z"/>
<path d="M5790 1470 c0 -13 48 -36 56 -27 4 3 4 13 1 22 -7 17 -57 21 -57 5z"/>
<path d="M1883 1458 c2 -7 10 -13 17 -13 7 0 15 6 18 13 2 7 -5 12 -18 12 -13
0 -20 -5 -17 -12z"/>
<path d="M1870 1430 c0 -5 5 -10 10 -10 6 0 10 5 10 10 0 6 -4 10 -10 10 -5 0
-10 -4 -10 -10z"/>
<path d="M5887 1424 c-10 -11 3 -24 24 -24 10 0 19 7 19 15 0 15 -31 21 -43 9z"/>
<path d="M1910 1385 c0 -8 -7 -15 -15 -15 -8 0 -15 -4 -15 -10 0 -5 7 -10 15
-10 8 0 15 5 15 10 0 6 7 10 15 10 8 0 15 7 15 15 0 8 -7 15 -15 15 -8 0 -15
-7 -15 -15z"/>
<path d="M5800 1385 c0 -8 4 -15 9 -15 5 0 14 7 21 15 10 13 9 15 -9 15 -12 0
-21 -6 -21 -15z"/>
<path d="M5831 1375 c-23 -23 -23 -23 -2 -30 26 -8 44 2 37 21 -3 8 -1 14 4
14 6 0 10 5 10 10 0 17 -24 10 -49 -15z"/>
<path d="M3940 1360 c0 -5 5 -10 10 -10 6 0 10 5 10 10 0 6 -4 10 -10 10 -5 0
-10 -4 -10 -10z"/>
<path d="M4070 1360 c0 -5 5 -10 10 -10 6 0 10 5 10 10 0 6 -4 10 -10 10 -5 0
-10 -4 -10 -10z"/>
<path d="M5887 1344 c-14 -14 22 -31 61 -30 31 0 41 4 37 14 -3 8 -5 16 -5 18
0 10 -49 3 -54 -8 -5 -10 -7 -10 -12 0 -6 13 -17 16 -27 6z"/>
<path d="M2051 1316 c-7 -9 -8 -16 -2 -20 5 -4 8 -17 5 -31 -2 -13 0 -27 6
-30 5 -3 10 1 10 10 0 12 6 15 23 9 12 -3 26 -13 30 -20 12 -21 27 -17 27 6 0
11 -5 20 -11 20 -15 0 -36 23 -41 46 -4 24 -31 30 -47 10z"/>
<path d="M2497 1284 c-8 -8 1 -24 14 -24 5 0 9 7 9 15 0 15 -12 20 -23 9z"/>
<path d="M5884 1278 c-2 -3 0 -9 5 -12 5 -4 12 -2 16 4 4 6 10 8 15 5 5 -3 11
-1 15 5 4 6 -5 9 -20 8 -15 -2 -29 -6 -31 -10z"/>
<path d="M2190 1265 c0 -9 7 -18 16 -22 20 -7 38 18 21 29 -20 13 -37 9 -37
-7z"/>
<path d="M4085 1270 c4 -6 11 -8 16 -5 14 9 11 15 -7 15 -8 0 -12 -5 -9 -10z"/>
<path d="M5550 1270 c0 -5 -7 -10 -15 -10 -18 0 -20 -16 -3 -26 6 -4 14 -2 16
4 2 7 10 12 18 12 8 0 14 7 14 15 0 8 -7 15 -15 15 -8 0 -15 -4 -15 -10z"/>
<path d="M5690 1235 c0 -8 4 -15 10 -15 5 0 7 -7 4 -15 -4 -8 -15 -15 -25 -15
-20 0 -26 -15 -9 -25 15 -9 70 17 70 33 0 23 -20 52 -35 52 -8 0 -15 -7 -15
-15z"/>
<path d="M5560 1210 c0 -16 5 -30 10 -30 6 0 10 4 10 10 0 5 7 7 15 4 23 -9
19 23 -4 36 -28 15 -31 13 -31 -20z"/>
<path d="M3660 1210 c0 -5 5 -10 10 -10 6 0 10 5 10 10 0 6 -4 10 -10 10 -5 0
-10 -4 -10 -10z"/>
<path d="M4060 1206 c0 -9 7 -16 16 -16 17 0 14 22 -4 28 -7 2 -12 -3 -12 -12z"/>
<path d="M2330 1200 c0 -5 5 -10 10 -10 6 0 10 5 10 10 0 6 -4 10 -10 10 -5 0
-10 -4 -10 -10z"/>
<path d="M5780 1169 c0 -5 5 -7 10 -4 6 3 10 8 10 11 0 2 -4 4 -10 4 -5 0 -10
-5 -10 -11z"/>
<path d="M2080 1160 c0 -5 -7 -10 -15 -10 -8 0 -15 -9 -15 -20 0 -13 7 -20 20
-20 13 0 20 7 20 20 0 11 5 20 10 20 6 0 10 5 10 10 0 6 -7 10 -15 10 -8 0
-15 -4 -15 -10z"/>
<path d="M2134 1099 c-6 -10 11 -29 26 -29 3 0 11 4 19 9 17 11 5 31 -19 31
-10 0 -22 -5 -26 -11z"/>
<path d="M2460 1070 c0 -5 5 -10 10 -10 6 0 10 5 10 10 0 6 -4 10 -10 10 -5 0
-10 -4 -10 -10z"/>
<path d="M2050 1056 c0 -8 6 -17 13 -19 9 -4 8 -8 -3 -16 -25 -17 2 -36 29
-19 25 16 26 22 4 48 -20 23 -43 26 -43 6z"/>
<path d="M2150 1034 c0 -8 5 -12 10 -9 6 3 10 10 10 16 0 5 -4 9 -10 9 -5 0
-10 -7 -10 -16z"/>
<path d="M2311 1036 c-8 -10 -9 -16 -1 -21 13 -8 30 3 30 21 0 18 -14 18 -29
0z"/>
<path d="M2445 1029 c-9 -26 10 -48 26 -32 12 12 3 53 -11 53 -5 0 -12 -9 -15
-21z"/>
<path d="M3530 1020 c0 -15 5 -20 18 -18 9 2 17 10 17 18 0 8 -8 16 -17 18
-13 2 -18 -3 -18 -18z"/>
<path d="M4418 1023 c7 -3 16 -2 19 1 4 3 -2 6 -13 5 -11 0 -14 -3 -6 -6z"/>
<path d="M5300 980 c0 -5 5 -10 10 -10 6 0 10 5 10 10 0 6 -4 10 -10 10 -5 0
-10 -4 -10 -10z"/>
<path d="M2203 968 c2 -7 10 -13 17 -13 7 0 15 6 18 13 2 7 -5 12 -18 12 -13
0 -20 -5 -17 -12z"/>
<path d="M2530 970 c0 -5 4 -10 9 -10 6 0 13 5 16 10 3 6 -1 10 -9 10 -9 0
-16 -4 -16 -10z"/>
<path d="M4385 960 c4 -6 11 -8 16 -5 14 9 11 15 -7 15 -8 0 -12 -5 -9 -10z"/>
<path d="M5160 961 c0 -5 3 -17 6 -26 5 -13 8 -14 15 -3 13 20 11 38 -6 38 -8
0 -15 -4 -15 -9z"/>
<path d="M3933 947 c-25 -13 -31 -37 -10 -37 7 0 18 5 24 11 9 9 10 7 6 -10
-3 -12 -1 -21 6 -21 6 0 11 5 11 10 0 6 7 10 16 10 10 0 14 7 12 23 -3 25 -31
31 -65 14z"/>
<path d="M2500 930 c0 -5 5 -10 10 -10 6 0 10 5 10 10 0 6 -4 10 -10 10 -5 0
-10 -4 -10 -10z"/>
<path d="M3565 920 c3 -5 10 -10 16 -10 5 0 9 5 9 10 0 6 -7 10 -16 10 -8 0
-12 -4 -9 -10z"/>
<path d="M5070 900 c0 -21 16 -26 39 -11 18 11 5 31 -20 31 -12 0 -19 -7 -19
-20z"/>
<path d="M2346 894 c-19 -19 -21 -87 -3 -102 17 -15 107 -8 141 11 24 13 27
17 14 22 -9 4 -14 13 -11 21 3 10 0 12 -10 9 -11 -5 -13 0 -10 19 3 14 1 26
-3 27 -5 0 -21 2 -36 4 -16 2 -28 -1 -28 -6 0 -6 -7 -6 -19 1 -15 7 -23 6 -35
-6z m74 -54 c5 0 7 -7 4 -15 -4 -8 -14 -15 -23 -14 -10 0 -11 2 -3 6 20 8 14
26 -8 20 -25 -6 -26 2 -2 19 14 10 18 10 20 -2 2 -8 7 -14 12 -14z"/>
<path d="M4990 899 c0 -5 5 -7 10 -4 6 3 10 8 10 11 0 2 -4 4 -10 4 -5 0 -10
-5 -10 -11z"/>
<path d="M5030 900 c0 -5 5 -10 10 -10 6 0 10 5 10 10 0 6 -4 10 -10 10 -5 0
-10 -4 -10 -10z"/>
<path d="M5180 900 c0 -5 5 -10 10 -10 6 0 10 5 10 10 0 6 -4 10 -10 10 -5 0
-10 -4 -10 -10z"/>
<path d="M5740 900 c0 -5 5 -10 10 -10 6 0 10 5 10 10 0 6 -4 10 -10 10 -5 0
-10 -4 -10 -10z"/>
<path d="M2710 892 c0 -5 7 -13 16 -16 10 -4 14 -1 12 6 -5 15 -28 23 -28 10z"/>
<path d="M5130 890 c0 -5 5 -10 10 -10 6 0 10 5 10 10 0 6 -4 10 -10 10 -5 0
-10 -4 -10 -10z"/>
<path d="M5162 868 c-19 -19 -14 -28 13 -28 27 0 28 1 19 24 -7 19 -16 20 -32
4z"/>
<path d="M2520 860 c0 -5 5 -10 10 -10 6 0 10 5 10 10 0 6 -4 10 -10 10 -5 0
-10 -4 -10 -10z"/>
<path d="M5690 860 c0 -5 5 -10 10 -10 6 0 10 5 10 10 0 6 -4 10 -10 10 -5 0
-10 -4 -10 -10z"/>
<path d="M2560 845 c0 -8 7 -15 15 -15 8 0 15 7 15 15 0 8 -7 15 -15 15 -8 0
-15 -7 -15 -15z"/>
<path d="M2800 851 c0 -5 7 -11 14 -14 10 -4 13 -1 9 9 -6 15 -23 19 -23 5z"/>
<path d="M3675 840 c-3 -5 1 -10 10 -10 9 0 13 5 10 10 -3 6 -8 10 -10 10 -2
0 -7 -4 -10 -10z"/>
<path d="M4190 830 c0 -5 5 -10 10 -10 6 0 10 5 10 10 0 6 -4 10 -10 10 -5 0
-10 -4 -10 -10z"/>
<path d="M4360 820 c0 -11 5 -20 10 -20 6 0 10 9 10 20 0 11 -4 20 -10 20 -5
0 -10 -9 -10 -20z"/>
<path d="M4420 827 c0 -8 -11 -20 -25 -27 -31 -17 -32 -36 -2 -44 43 -11 47
-8 47 39 0 25 -4 45 -10 45 -5 0 -10 -6 -10 -13z"/>
<path d="M2792 807 c-15 -17 -6 -27 25 -27 18 0 24 5 21 17 -4 22 -31 28 -46
10z"/>
<path d="M5140 810 c0 -5 5 -10 10 -10 6 0 10 5 10 10 0 6 -4 10 -10 10 -5 0
-10 -4 -10 -10z"/>
<path d="M5585 790 c-3 -5 1 -10 10 -10 9 0 13 5 10 10 -3 6 -8 10 -10 10 -2
0 -7 -4 -10 -10z"/>
<path d="M2500 780 c0 -5 5 -10 11 -10 5 0 7 5 4 10 -3 6 -8 10 -11 10 -2 0
-4 -4 -4 -10z"/>
<path d="M2645 777 c-27 -16 -29 -39 -6 -64 20 -21 20 -21 0 -26 -27 -7 -28
-67 0 -67 25 0 43 24 39 52 -2 15 5 30 19 41 13 10 23 23 23 28 0 15 -27 10
-34 -6 -3 -8 -10 -15 -16 -15 -6 0 -2 13 9 29 12 16 21 32 21 35 0 10 -33 5
-55 -7z"/>
<path d="M3853 770 c3 -11 1 -20 -4 -20 -5 0 -9 7 -9 15 0 8 -4 15 -10 15 -5
0 -10 -4 -10 -10 0 -5 -5 -9 -11 -7 -6 1 -14 -4 -17 -12 -3 -10 0 -12 12 -8
22 9 32 -18 16 -38 -19 -23 -6 -29 27 -13 24 11 28 20 30 56 1 32 -2 42 -14
42 -10 0 -14 -6 -10 -20z"/>
<path d="M2380 749 c0 -6 -9 -8 -20 -4 -16 5 -20 2 -20 -19 0 -34 14 -33 40 4
12 17 17 30 11 30 -6 0 -11 -5 -11 -11z"/>
<path d="M5480 729 c0 -5 5 -7 10 -4 6 3 10 8 10 11 0 2 -4 4 -10 4 -5 0 -10
-5 -10 -11z"/>
<path d="M3530 720 c0 -5 5 -10 10 -10 6 0 10 5 10 10 0 6 -4 10 -10 10 -5 0
-10 -4 -10 -10z"/>
<path d="M4124 719 c-9 -15 12 -33 30 -26 9 4 16 13 16 22 0 17 -35 21 -46 4z"/>
<path d="M2380 700 c0 -5 5 -10 10 -10 6 0 10 5 10 10 0 6 -4 10 -10 10 -5 0
-10 -4 -10 -10z"/>
<path d="M3930 690 c0 -5 9 -10 20 -10 11 0 20 5 20 10 0 6 -9 10 -20 10 -11
0 -20 -4 -20 -10z"/>
<path d="M2750 675 c0 -8 7 -15 15 -15 8 0 15 7 15 15 0 8 -7 15 -15 15 -8 0
-15 -7 -15 -15z"/>
<path d="M4960 680 c0 -5 9 -10 20 -10 11 0 20 5 20 10 0 6 -9 10 -20 10 -11
0 -20 -4 -20 -10z"/>
<path d="M5687 683 c-10 -9 -9 -23 1 -23 5 0 17 7 28 15 19 14 19 14 -2 15
-11 0 -24 -3 -27 -7z"/>
<path d="M5606 658 c-10 -37 -7 -58 8 -58 16 0 26 32 19 60 -7 27 -19 25 -27
-2z"/>
<path d="M3570 660 c0 -5 5 -10 10 -10 6 0 10 5 10 10 0 6 -4 10 -10 10 -5 0
-10 -4 -10 -10z"/>
<path d="M5430 655 c-13 -16 -6 -35 15 -35 18 0 26 15 19 34 -8 20 -18 20 -34
1z"/>
<path d="M4844 649 c-3 -6 -2 -15 4 -21 15 -15 46 -5 50 15 3 12 -3 17 -22 17
-14 0 -28 -5 -32 -11z"/>
<path d="M4957 653 c-14 -13 -6 -23 18 -23 16 0 25 6 25 15 0 15 -31 21 -43 8z"/>
<path d="M2530 600 c0 -5 14 -10 31 -10 17 0 28 4 24 10 -3 6 -17 10 -31 10
-13 0 -24 -4 -24 -10z"/>
<path d="M5444 586 c-7 -28 2 -49 18 -40 6 4 14 0 19 -7 13 -22 19 -6 12 34
-7 44 -39 52 -49 13z"/>
<path d="M3060 575 c0 -10 10 -15 26 -15 22 0 25 2 14 15 -7 8 -19 15 -26 15
-8 0 -14 -7 -14 -15z"/>
<path d="M3780 580 c0 -5 9 -10 20 -10 11 0 20 5 20 10 0 6 -9 10 -20 10 -11
0 -20 -4 -20 -10z"/>
<path d="M3839 580 c-16 -10 -11 -17 15 -22 22 -4 33 17 13 25 -8 3 -20 1 -28
-3z"/>
<path d="M5525 568 c-3 -7 -3 -22 -1 -33 3 -11 5 -22 5 -24 3 -13 41 35 41 51
0 21 -38 26 -45 6z"/>
<path d="M3100 530 c0 -5 5 -10 10 -10 6 0 10 5 10 10 0 6 -4 10 -10 10 -5 0
-10 -4 -10 -10z"/>
<path d="M2425 521 c-7 -12 12 -24 25 -16 11 7 4 25 -10 25 -5 0 -11 -4 -15
-9z"/>
<path d="M3780 510 c-12 -23 -9 -25 52 -33 45 -7 56 5 25 25 -42 28 -65 31
-77 8z"/>
<path d="M5617 500 c-22 -26 -23 -72 -1 -63 10 4 14 13 10 28 -4 17 -1 24 15
28 12 3 18 10 14 16 -9 16 -18 14 -38 -9z"/>
<path d="M5471 491 c-11 -7 -10 -11 7 -20 28 -15 32 -14 32 9 0 21 -16 26 -39
11z"/>
<path d="M2842 479 c2 -6 8 -10 13 -10 5 0 11 4 13 10 2 6 -4 11 -13 11 -9 0
-15 -5 -13 -11z"/>
<path d="M2985 480 c-7 -12 2 -30 16 -30 5 0 9 9 9 20 0 21 -15 27 -25 10z"/>
<path d="M3810 461 c0 -6 5 -11 10 -11 6 0 10 -5 10 -11 0 -7 -7 -8 -17 -4
-10 4 -24 9 -30 12 -22 9 -16 -60 6 -74 10 -6 21 -25 24 -42 10 -48 31 -39 23
9 -4 25 -2 40 4 40 15 0 12 30 -2 31 -7 0 -3 4 10 9 24 10 30 40 8 40 -8 0
-21 3 -30 6 -9 3 -16 1 -16 -5z"/>
<path d="M4377 464 c-15 -15 -6 -24 24 -24 20 0 29 4 27 13 -5 14 -40 21 -51
11z"/>
<path d="M5660 451 c0 -11 31 -24 39 -16 3 3 -1 10 -9 15 -19 12 -30 12 -30 1z"/>
<path d="M3090 434 c0 -10 28 -34 39 -34 6 0 11 5 11 10 0 6 -5 10 -11 10 -5
0 -7 5 -4 10 3 6 -3 10 -14 10 -12 0 -21 -3 -21 -6z"/>
<path d="M3000 420 c0 -5 5 -10 10 -10 6 0 10 5 10 10 0 6 -4 10 -10 10 -5 0
-10 -4 -10 -10z"/>
<path d="M3040 415 c0 -8 7 -15 15 -15 8 0 15 7 15 15 0 8 -7 15 -15 15 -8 0
-15 -7 -15 -15z"/>
<path d="M2590 409 c0 -5 5 -7 10 -4 6 3 10 8 10 11 0 2 -4 4 -10 4 -5 0 -10
-5 -10 -11z"/>
<path d="M3240 410 c0 -5 5 -10 10 -10 6 0 10 5 10 10 0 6 -4 10 -10 10 -5 0
-10 -4 -10 -10z"/>
<path d="M4500 410 c0 -5 7 -10 15 -10 8 0 15 5 15 10 0 6 -7 10 -15 10 -8 0
-15 -4 -15 -10z"/>
<path d="M3070 371 c0 -5 7 -12 16 -15 22 -9 24 -8 24 9 0 8 -9 15 -20 15 -11
0 -20 -4 -20 -9z"/>
<path d="M4700 330 c0 -5 5 -10 10 -10 6 0 10 5 10 10 0 6 -4 10 -10 10 -5 0
-10 -4 -10 -10z"/>
<path d="M3120 295 c0 -25 14 -34 24 -16 8 12 -3 41 -15 41 -5 0 -9 -11 -9
-25z"/>
<path d="M3535 311 c-8 -15 3 -31 21 -31 9 0 14 7 12 17 -4 20 -24 28 -33 14z"/>
<path d="M3270 300 c0 -5 5 -10 11 -10 5 0 7 5 4 10 -3 6 -8 10 -11 10 -2 0
-4 -4 -4 -10z"/>
<path d="M3355 300 c-3 -5 1 -10 10 -10 9 0 13 5 10 10 -3 6 -8 10 -10 10 -2
0 -7 -4 -10 -10z"/>
<path d="M3580 295 c0 -8 7 -15 15 -15 8 0 15 7 15 15 0 8 -7 15 -15 15 -8 0
-15 -7 -15 -15z"/>
<path d="M4695 281 c-6 -11 9 -23 19 -14 9 9 7 23 -3 23 -6 0 -12 -4 -16 -9z"/>
<path d="M3264 262 c-4 -12 -13 -22 -20 -22 -8 0 -14 -7 -14 -15 0 -23 51 -20
57 4 3 13 11 17 24 14 19 -5 27 -33 9 -33 -5 0 -10 -4 -10 -10 0 -5 14 -10 30
-10 17 0 30 5 30 10 0 6 -6 10 -12 10 -10 0 -9 3 1 9 7 5 10 14 7 20 -4 6 -12
9 -17 6 -5 -4 -9 1 -9 9 0 21 -18 30 -34 17 -9 -7 -16 -7 -25 2 -9 9 -13 7
-17 -11z"/>
<path d="M3450 210 c0 -5 5 -10 10 -10 6 0 10 5 10 10 0 6 -4 10 -10 10 -5 0
-10 -4 -10 -10z"/>
<path d="M3403 194 c-16 -7 -5 -34 13 -34 8 0 14 9 14 20 0 20 -5 23 -27 14z"/>
<path d="M3304 159 c-3 -6 -2 -15 3 -20 13 -13 43 -1 43 17 0 16 -36 19 -46 3z"/>
<path d="M3387 144 c-9 -10 2 -24 19 -24 8 0 14 7 14 15 0 15 -21 21 -33 9z"/>
</g>
</svg>
